<svg xmlns="http://www.w3.org/2000/svg" width="92" height="92" viewBox="0 0 92 92">
  <g id="Grupo_1235750" data-name="Grupo 1235750" transform="translate(-334.051 -5279)">
    <g id="Grupo_1234099" data-name="Grupo 1234099" transform="translate(105 -55)">
      <circle id="Elipse_13860" data-name="Elipse 13860" cx="46" cy="46" r="46" transform="translate(229.051 5334)" fill="#deeaff"/>
      <circle id="Elipse_13861" data-name="Elipse 13861" cx="36" cy="36" r="36" transform="translate(239.051 5344)" fill="#fff"/>
    </g>
    <path id="Trazado_1314331" data-name="Trazado 1314331" d="M5.864-8.767a3.533,3.533,0,0,0-1.377-2.995,18.061,18.061,0,0,0-4.957-2.2,35.14,35.14,0,0,1-5.668-2.283q-5.691-3.075-5.691-8.285A8.069,8.069,0,0,1-10.3-29.364,9.955,9.955,0,0,1-5.921-32.68,16.5,16.5,0,0,1,.493-33.873a15.017,15.017,0,0,1,6.38,1.3,10.159,10.159,0,0,1,4.349,3.66,9.578,9.578,0,0,1,1.549,5.37H5.886a4.506,4.506,0,0,0-1.446-3.569A5.943,5.943,0,0,0,.379-28.388a6.35,6.35,0,0,0-3.924,1.067,3.366,3.366,0,0,0-1.4,2.811A3.224,3.224,0,0,0-3.3-21.779a18.538,18.538,0,0,0,4.831,2.065q5.875,1.767,8.56,4.383a8.729,8.729,0,0,1,2.685,6.518,8.041,8.041,0,0,1-3.282,6.8Q6.208.459.654.459A17.062,17.062,0,0,1-6.368-.952,11.112,11.112,0,0,1-11.2-4.819a9.9,9.9,0,0,1-1.664-5.691h6.908q0,5.531,6.609,5.531a6.429,6.429,0,0,0,3.833-1A3.248,3.248,0,0,0,5.864-8.767Z" transform="translate(380.051 5341)" fill="#12263f"/>
  </g>
</svg>
