<svg xmlns="http://www.w3.org/2000/svg" width="92" height="92" viewBox="0 0 92 92">
  <g id="Grupo_1235753" data-name="Grupo 1235753" transform="translate(-964.051 -5279)">
    <g id="Grupo_1234102" data-name="Grupo 1234102" transform="translate(735 -55)">
      <circle id="Elipse_13860" data-name="Elipse 13860" cx="46" cy="46" r="46" transform="translate(229.051 5334)" fill="#ffde83"/>
      <circle id="Elipse_13861" data-name="Elipse 13861" cx="36" cy="36" r="36" transform="translate(239.051 5344)" fill="#fff"/>
    </g>
    <path id="Trazado_1314334" data-name="Trazado 1314334" d="M.356-12.232H-5.129V0h-6.885V-33.414H.4q5.921,0,9.134,2.639a9.109,9.109,0,0,1,3.213,7.458,10.28,10.28,0,0,1-1.48,5.7,10.1,10.1,0,0,1-4.487,3.637L14.01-.321V0H6.621Zm-5.485-5.577H.425a5.686,5.686,0,0,0,4.016-1.32,4.717,4.717,0,0,0,1.423-3.637,5.049,5.049,0,0,0-1.343-3.718A5.579,5.579,0,0,0,.4-27.837H-5.129Z" transform="translate(1010.051 5341)" fill="#12263f"/>
  </g>
</svg>
