<svg xmlns="http://www.w3.org/2000/svg" width="62.957" height="69.308" viewBox="0 0 62.957 69.308">
  <g id="_x31_1" transform="translate(-4.7 -2.501)">
    <g id="Grupo_1222641" data-name="Grupo 1222641" transform="translate(18.937 2.501)">
      <g id="Grupo_1222601" data-name="Grupo 1222601">
        <g id="Grupo_1222589" data-name="Grupo 1222589">
          <g id="Grupo_1222588" data-name="Grupo 1222588">
            <g id="Grupo_1222575" data-name="Grupo 1222575">
              <path id="Trazado_1295147" data-name="Trazado 1295147" d="M42.573,4.026,17.794,71.633l-2.339-1.357a1.782,1.782,0,0,1-.751-1.646L14.56,19.506a5.487,5.487,0,0,1,2.5-4.3l21.4-12.36a1.761,1.761,0,0,1,1.776-.173Z" transform="translate(-14.56 -2.501)" fill="#9ea9c9"/>
            </g>
            <g id="Grupo_1222576" data-name="Grupo 1222576" transform="translate(2.341 1.356)">
              <path id="Trazado_1295148" data-name="Trazado 1295148" d="M40.078,3.782c1.379-.8,2.5-.157,2.506,1.428l.139,49.2a5.486,5.486,0,0,1-2.489,4.312L18.9,71.039c-1.421.82-2.577.161-2.581-1.471l-.139-49.114a5.486,5.486,0,0,1,2.489-4.312Z" transform="translate(-16.181 -3.44)" fill="#e3e7f0"/>
            </g>
            <g id="Grupo_1222577" data-name="Grupo 1222577" transform="translate(2.939 1.954)">
              <path id="Trazado_1295149" data-name="Trazado 1295149" d="M17.563,70.61c-.745,0-.828-.859-.829-1.228L16.6,20.268a4.907,4.907,0,0,1,2.19-3.792L40.193,4.116a1.71,1.71,0,0,1,.822-.262c.707,0,.786.821.787,1.174l.139,49.2a4.907,4.907,0,0,1-2.19,3.792L18.419,70.337a1.779,1.779,0,0,1-.855.273Z" transform="translate(-16.595 -3.854)" fill="#38425d"/>
            </g>
            <g id="Grupo_1222578" data-name="Grupo 1222578" transform="translate(3.35 2.363)">
              <path id="Trazado_1295150" data-name="Trazado 1295150" d="M41.4,54.113a4.511,4.511,0,0,1-1.978,3.422L18.078,69.852a1.325,1.325,0,0,1-.635.217c-.13,0-.231-.043-.318-.231a1.522,1.522,0,0,1-.1-.578L16.88,20.136A4.536,4.536,0,0,1,18.872,16.7l21.4-12.346a1.235,1.235,0,0,1,.621-.217c.116,0,.2.043.274.217a1.346,1.346,0,0,1,.087.549Z" transform="translate(-16.88 -4.137)" fill="#5094ff"/>
            </g>
            <g id="Grupo_1222579" data-name="Grupo 1222579" transform="translate(3.35 2.363)">
              <path id="Trazado_1295151" data-name="Trazado 1295151" d="M41.254,4.9l.01,3.4L16.894,23.053l-.014-2.917a4.485,4.485,0,0,1,1.993-3.422l21.4-12.36a1.235,1.235,0,0,1,.621-.217c.116,0,.2.043.274.217a1.346,1.346,0,0,1,.087.549Z" transform="translate(-16.88 -4.137)" fill="#e3e7f0"/>
            </g>
            <g id="Grupo_1222582" data-name="Grupo 1222582" transform="translate(21.089 1.955)">
              <g id="Grupo_1222580" data-name="Grupo 1222580">
                <path id="Trazado_1295152" data-name="Trazado 1295152" d="M31.115,4.043a1.824,1.824,0,0,0-1.614,0c-.395.227-.442.574-.143.825A.746.746,0,0,1,29.5,4.76a1.824,1.824,0,0,1,1.614,0l.143.108C31.546,4.617,31.5,4.27,31.115,4.043Z" transform="translate(-29.165 -3.854)" fill="#eaefef"/>
              </g>
              <g id="Grupo_1222581" data-name="Grupo 1222581" transform="translate(0.193 0.717)">
                <path id="Trazado_1295153" data-name="Trazado 1295153" d="M29.442,4.54a.747.747,0,0,0-.143.108.747.747,0,0,0,.143.108,1.749,1.749,0,0,0,1.614,0,1,1,0,0,0,.143-.1V4.647l-.143-.108A1.824,1.824,0,0,0,29.442,4.54Z" transform="translate(-29.298 -4.351)" fill="#434240"/>
              </g>
            </g>
            <g id="Grupo_1222583" data-name="Grupo 1222583" transform="translate(5.25 15.178)">
              <path id="Trazado_1295154" data-name="Trazado 1295154" d="M19.58,13.043a.155.155,0,0,1,.161-.014c.084.053.081.217-.007.364l-1,1.666,1,.513c.089.046.093.2.009.355a.454.454,0,0,1-.16.172.161.161,0,0,1-.153.018l-1.171-.6a.153.153,0,0,1-.069-.145.452.452,0,0,1,.068-.224L19.428,13.2a.446.446,0,0,1,.152-.158Z" transform="translate(-18.196 -13.012)" fill="#9ea9c9"/>
            </g>
            <g id="Grupo_1222585" data-name="Grupo 1222585" transform="translate(10.571 8.073)">
              <g id="Grupo_1222584" data-name="Grupo 1222584">
                <path id="Trazado_1295155" data-name="Trazado 1295155" d="M31.656,8.166c.3-.172.539-.035.54.308a1.179,1.179,0,0,1-.537.929l-9.238,5.334c-.3.172-.539.035-.54-.308a1.179,1.179,0,0,1,.537-.929Z" transform="translate(-21.881 -8.092)" fill="#9ea9c9"/>
              </g>
            </g>
            <g id="Grupo_1222586" data-name="Grupo 1222586" transform="translate(24.275 4.46)">
              <path id="Trazado_1295156" data-name="Trazado 1295156" d="M33.364,6.3a2.189,2.189,0,0,1-.994,1.724c-.551.317-1,.063-1-.573a2.193,2.193,0,0,1,.991-1.721c.553-.317,1-.063,1,.57Z" transform="translate(-31.371 -5.589)" fill="#9ea9c9"/>
            </g>
            <g id="Grupo_1222587" data-name="Grupo 1222587" transform="translate(24.676 4.976)">
              <path id="Trazado_1295157" data-name="Trazado 1295157" d="M32.84,6.369a1.309,1.309,0,0,1-.594,1.03c-.329.189-.6.038-.6-.342a1.311,1.311,0,0,1,.593-1.029C32.572,5.839,32.839,5.99,32.84,6.369Z" transform="translate(-31.649 -5.947)" fill="#eaefef"/>
            </g>
          </g>
        </g>
        <g id="Grupo_1222600" data-name="Grupo 1222600" transform="translate(0.365 20.69)">
          <g id="Grupo_1222594" data-name="Grupo 1222594" transform="translate(0 7.126)">
            <g id="Grupo_1222591" data-name="Grupo 1222591" transform="translate(0.112)">
              <g id="Grupo_1222590" data-name="Grupo 1222590">
                <path id="Trazado_1295158" data-name="Trazado 1295158" d="M16.435,22.779l-.014,4.982a.271.271,0,0,1-.1.231L16,28.18,14.89,21.971l.318-.188a.259.259,0,0,1,.245.029l.635.361a.8.8,0,0,1,.347.606Z" transform="translate(-14.89 -21.764)" fill="#111d33"/>
              </g>
            </g>
            <g id="Grupo_1222593" data-name="Grupo 1222593" transform="translate(0 0.181)">
              <g id="Grupo_1222592" data-name="Grupo 1222592">
                <path id="Trazado_1295159" data-name="Trazado 1295159" d="M15.8,22.3a.77.77,0,0,1,.349.6l-.014,4.986c0,.222-.158.311-.352.2l-.625-.364a.768.768,0,0,1-.349-.6l.014-4.986c0-.222.158-.312.351-.2Z" transform="translate(-14.813 -21.89)" fill="#4c5c75"/>
              </g>
            </g>
          </g>
          <g id="Grupo_1222599" data-name="Grupo 1222599" transform="translate(0.02)">
            <g id="Grupo_1222596" data-name="Grupo 1222596" transform="translate(0.121)">
              <g id="Grupo_1222595" data-name="Grupo 1222595">
                <path id="Trazado_1295160" data-name="Trazado 1295160" d="M16.44,17.852l-.014,4.982a.226.226,0,0,1-.1.217l-.318.188-1.1-6.209.3-.173a.28.28,0,0,1,.26.014l.621.375a.757.757,0,0,1,.347.606Z" transform="translate(-14.91 -16.829)" fill="#111d33"/>
              </g>
            </g>
            <g id="Grupo_1222598" data-name="Grupo 1222598" transform="translate(0 0.182)">
              <g id="Grupo_1222597" data-name="Grupo 1222597">
                <path id="Trazado_1295161" data-name="Trazado 1295161" d="M15.816,17.367a.77.77,0,0,1,.349.6l-.014,4.986c0,.222-.158.312-.352.2l-.625-.364a.769.769,0,0,1-.349-.6L14.84,17.2c0-.222.158-.312.351-.2Z" transform="translate(-14.826 -16.955)" fill="#4c5c75"/>
              </g>
            </g>
          </g>
        </g>
      </g>
      <g id="Grupo_1222640" data-name="Grupo 1222640" transform="translate(4.852 11.444)">
        <g id="Grupo_1222610" data-name="Grupo 1222610">
          <g id="Grupo_1222602" data-name="Grupo 1222602" transform="translate(0.058 22.164)">
            <path id="Trazado_1295162" data-name="Trazado 1295162" d="M39.042,26.514,19.49,56.693l-1.155-.664a.761.761,0,0,1-.318-.708L17.96,38.239a2.372,2.372,0,0,1,1.083-1.877l18.078-10.44a.777.777,0,0,1,.78-.072Z" transform="translate(-17.96 -25.776)" fill="#b0b8cf"/>
          </g>
          <g id="Grupo_1222604" data-name="Grupo 1222604" transform="translate(1.214 22.828)">
            <g id="Grupo_1222603" data-name="Grupo 1222603">
              <path id="Trazado_1295163" data-name="Trazado 1295163" d="M37.914,26.386c.6-.349,1.1-.069,1.1.625l.048,17.081a2.4,2.4,0,0,1-1.09,1.888L19.9,56.415c-.6.349-1.085.063-1.087-.631L18.761,38.7a2.381,2.381,0,0,1,1.08-1.882Z" transform="translate(-18.761 -26.235)" fill="#e3e7f0"/>
            </g>
          </g>
          <g id="Grupo_1222609" data-name="Grupo 1222609">
            <g id="Grupo_1222606" data-name="Grupo 1222606">
              <g id="Grupo_1222605" data-name="Grupo 1222605">
                <path id="Trazado_1295164" data-name="Trazado 1295164" d="M39,11.179,19.436,41.357,18.3,40.679a.765.765,0,0,1-.332-.708L17.92,22.9A2.377,2.377,0,0,1,19,21.012L37.081,10.587a.728.728,0,0,1,.765-.087Z" transform="translate(-17.92 -10.426)" fill="#b0b8cf"/>
              </g>
            </g>
            <g id="Grupo_1222608" data-name="Grupo 1222608" transform="translate(1.151 0.671)">
              <g id="Grupo_1222607" data-name="Grupo 1222607">
                <path id="Trazado_1295165" data-name="Trazado 1295165" d="M37.871,11.041c.6-.349,1.1-.069,1.1.625l.048,17.081a2.4,2.4,0,0,1-1.09,1.888L19.853,41.071c-.6.349-1.085.063-1.087-.631l-.048-17.081a2.381,2.381,0,0,1,1.08-1.882Z" transform="translate(-18.717 -10.891)" fill="#e3e7f0"/>
              </g>
            </g>
          </g>
        </g>
        <g id="Grupo_1222621" data-name="Grupo 1222621" transform="translate(2.717 12.926)">
          <g id="Grupo_1222620" data-name="Grupo 1222620">
            <g id="Grupo_1222611" data-name="Grupo 1222611" transform="translate(13.025)">
              <path id="Trazado_1295166" data-name="Trazado 1295166" d="M33.5,20.331l-4.678,2.686v-.953L33.5,19.378Z" transform="translate(-28.821 -19.378)" fill="#b0b8cf"/>
            </g>
            <g id="Grupo_1222612" data-name="Grupo 1222612" transform="translate(13.718 5.487)">
              <path id="Trazado_1295167" data-name="Trazado 1295167" d="M29.3,24.406l2.151-1.227v.967L29.3,25.373Z" transform="translate(-29.301 -23.178)" fill="#b0b8cf"/>
            </g>
            <g id="Grupo_1222613" data-name="Grupo 1222613" transform="translate(9.054 2.209)">
              <path id="Trazado_1295168" data-name="Trazado 1295168" d="M26.086,26.858l-.014-.967,8.649-4.982v.953Z" transform="translate(-26.071 -20.908)" fill="#b0b8cf"/>
            </g>
            <g id="Grupo_1222614" data-name="Grupo 1222614" transform="translate(16.403 4.419)">
              <path id="Trazado_1295169" data-name="Trazado 1295169" d="M32.475,23.406l-1.314.765V23.2l1.3-.765Z" transform="translate(-31.161 -22.438)" fill="#b0b8cf"/>
            </g>
            <g id="Grupo_1222615" data-name="Grupo 1222615" transform="translate(0 4.895)">
              <path id="Trazado_1295170" data-name="Trazado 1295170" d="M29,23.721l-9.2,5.314v-.953L29,22.768Z" transform="translate(-19.801 -22.768)" fill="#b0b8cf"/>
            </g>
            <g id="Grupo_1222616" data-name="Grupo 1222616" transform="translate(0.014 7.292)">
              <path id="Trazado_1295171" data-name="Trazado 1295171" d="M32.518,24.428l.014.967-12.721,7.35v-.967Z" transform="translate(-19.811 -24.428)" fill="#b0b8cf"/>
            </g>
            <g id="Grupo_1222617" data-name="Grupo 1222617" transform="translate(0 9.415)">
              <path id="Trazado_1295172" data-name="Trazado 1295172" d="M19.816,29.869l-.014-.953L25.029,25.9v.953Z" transform="translate(-19.801 -25.898)" fill="#b0b8cf"/>
            </g>
            <g id="Grupo_1222618" data-name="Grupo 1222618" transform="translate(10.18 3.09)">
              <path id="Trazado_1295173" data-name="Trazado 1295173" d="M26.851,23.728V22.76l2.166-1.242v.939Z" transform="translate(-26.851 -21.518)" fill="#b0b8cf"/>
            </g>
            <g id="Grupo_1222619" data-name="Grupo 1222619" transform="translate(6.209 7.595)">
              <path id="Trazado_1295174" data-name="Trazado 1295174" d="M24.1,26.833v-.939l2.151-1.256v.968Z" transform="translate(-24.101 -24.638)" fill="#b0b8cf"/>
            </g>
          </g>
        </g>
        <g id="Grupo_1222634" data-name="Grupo 1222634" transform="translate(7.836 7.762)">
          <g id="Grupo_1222633" data-name="Grupo 1222633">
            <g id="Grupo_1222623" data-name="Grupo 1222623">
              <g id="Grupo_1222622" data-name="Grupo 1222622">
                <path id="Trazado_1295175" data-name="Trazado 1295175" d="M29.524,21.348c-.05.123-.112.251-.173.38a9.022,9.022,0,0,1-2.044,2.189,1.9,1.9,0,0,1-.184.134c-.1.067-.2.128-.3.184s-.212.117-.318.168c-.067.028-.128.056-.19.084a2.084,2.084,0,0,1-2.145-.134,2.553,2.553,0,0,1-.827-2.094A7.618,7.618,0,0,1,26.8,16.277c2.647-1.53,4.613.76,2.72,5.071Z" transform="translate(-23.347 -15.802)" fill="#fff"/>
              </g>
            </g>
            <g id="Grupo_1222632" data-name="Grupo 1222632" transform="translate(0.844 1.206)">
              <g id="Grupo_1222625" data-name="Grupo 1222625" transform="translate(0 4.204)">
                <g id="Grupo_1222624" data-name="Grupo 1222624">
                  <path id="Trazado_1295176" data-name="Trazado 1295176" d="M29.26,19.693c-.043.116-.116.245-.159.375a9.16,9.16,0,0,1-2.05,2.18v.014c-.058.058-.13.087-.173.13-.1.058-.2.13-.3.188s-.2.116-.318.173a1.14,1.14,0,0,0-.2.072,2.056,2.056,0,0,1-2.123-.13,1.193,1.193,0,0,1,.217-.332,12.09,12.09,0,0,1,1.3-1.43c.043-.058.289-.318.289-.332l.014.014a.547.547,0,0,0,.231.52.592.592,0,0,0,.39.029.7.7,0,0,1,.1-.043.48.48,0,0,1,.087-.043c.014-.014.043-.014.058-.043.043-.014.072-.058.116-.072a1.847,1.847,0,0,0,.621-1.271v-.014a.9.9,0,0,1,.231-.014h.058a4.47,4.47,0,0,1,1.328-.087.643.643,0,0,1,.289.116Z" transform="translate(-23.931 -19.549)" fill="#5ec363"/>
                </g>
              </g>
              <g id="Grupo_1222627" data-name="Grupo 1222627" transform="translate(1.813 3.796)">
                <g id="Grupo_1222626" data-name="Grupo 1222626">
                  <path id="Trazado_1295177" data-name="Trazado 1295177" d="M26.79,19.266v.547a1.787,1.787,0,0,1-.619,1.257,1.257,1.257,0,0,1-.18.127.9.9,0,0,1-.182.081.479.479,0,0,1-.386-.024.56.56,0,0,1-.237-.516V20.26a.746.746,0,0,0,.687.071A.662.662,0,0,0,26,20.275a.784.784,0,0,0,.089-.06A2.61,2.61,0,0,0,26.79,19.266Z" transform="translate(-25.187 -19.266)" fill="#f5c9c6"/>
                </g>
              </g>
              <g id="Grupo_1222629" data-name="Grupo 1222629" transform="translate(1.231)">
                <g id="Grupo_1222628" data-name="Grupo 1222628">
                  <path id="Trazado_1295178" data-name="Trazado 1295178" d="M26.193,16.894c1.419-.819,1.319.58,1.314.653a3.5,3.5,0,0,1-.035.682,2.521,2.521,0,0,1-.241.8,1.511,1.511,0,0,0,.011-.288,3.151,3.151,0,0,0-.084-.708c-.036-.113-.091-.119-.142-.09a.263.263,0,0,0-.056.046.54.54,0,0,0-.064.083,3.489,3.489,0,0,1-.183.332,1.884,1.884,0,0,1-.49.568L26.178,19a.9.9,0,0,1-.463.136.6.6,0,0,1-.418-.16.148.148,0,0,0-.088.019.507.507,0,0,0-.162.362l0,.013a4.491,4.491,0,0,0,0,.954l0-.006c-.089-.138-.09-.14-.091-.143l-.008-.018-.012-.027,0-.01,0-.009a1.764,1.764,0,0,1-.091-.348,4.774,4.774,0,0,1-.043-.981,2.731,2.731,0,0,1,1.271-1.816q.066-.042.129-.078Z" transform="translate(-24.784 -16.637)" fill="#8a4852"/>
                </g>
              </g>
              <g id="Grupo_1222631" data-name="Grupo 1222631" transform="translate(0.967 1.295)">
                <g id="Grupo_1222630" data-name="Grupo 1222630">
                  <path id="Trazado_1295179" data-name="Trazado 1295179" d="M27.1,17.549c.051-.029.106-.024.142.09a3.151,3.151,0,0,1,.084.708,1.5,1.5,0,0,1-.011.288,2.593,2.593,0,0,0,.242-.8c.062-.033.343-.163.3.281a2.647,2.647,0,0,1-.515,1.11,4.274,4.274,0,0,1-.29.813,2.61,2.61,0,0,1-.7.949.785.785,0,0,1-.089.06.662.662,0,0,1-.122.055.746.746,0,0,1-.687-.071.88.88,0,0,1-.294-.5.787.787,0,0,1-.55-.6.681.681,0,0,1,.133-.438.372.372,0,0,1,.111-.1.155.155,0,0,1,.069-.023,1.763,1.763,0,0,0,.091.347l0,.01.011.026c.109.177.048-.379.1-.777l0-.013a.507.507,0,0,1,.162-.362.148.148,0,0,1,.088-.019.6.6,0,0,0,.418.159.9.9,0,0,0,.463-.136l.044-.027a1.884,1.884,0,0,0,.49-.568,3.491,3.491,0,0,0,.183-.333.539.539,0,0,1,.064-.083A.263.263,0,0,1,27.1,17.549Z" transform="translate(-24.601 -17.534)" fill="#f4d6d4"/>
                </g>
              </g>
            </g>
          </g>
        </g>
        <g id="Grupo_1222637" data-name="Grupo 1222637" transform="translate(6.298 31.464)">
          <g id="Grupo_1222636" data-name="Grupo 1222636">
            <g id="Grupo_1222635" data-name="Grupo 1222635">
              <path id="Trazado_1295180" data-name="Trazado 1295180" d="M32.418,35.815a11.139,11.139,0,0,1-5.054,8.765c-2.787,1.617-5.083.318-5.083-2.917a11.113,11.113,0,0,1,5.054-8.75C30.137,31.295,32.4,32.595,32.418,35.815Z" transform="translate(-22.281 -32.217)" fill="#f45170"/>
            </g>
          </g>
        </g>
        <g id="Grupo_1222639" data-name="Grupo 1222639" transform="translate(9.923 36.224)">
          <g id="Grupo_1222638" data-name="Grupo 1222638">
            <path id="Trazado_1295181" data-name="Trazado 1295181" d="M28.623,35.985l-3.818,4.9-.014-5.369Z" transform="translate(-24.792 -35.513)" fill="#fff"/>
          </g>
        </g>
      </g>
    </g>
    <g id="Grupo_1222646" data-name="Grupo 1222646" transform="translate(4.7 20.929)">
      <g id="Grupo_1222642" data-name="Grupo 1222642">
        <path id="Trazado_1295182" data-name="Trazado 1295182" d="M16.381,15.991,6.1,30.691,4.931,30a.507.507,0,0,1-.217-.476L4.7,21.984a1.593,1.593,0,0,1,.736-1.271l9.256-5.357a.556.556,0,0,1,.534-.043Z" transform="translate(-4.7 -15.263)" fill="#febc1f"/>
      </g>
      <g id="Grupo_1222643" data-name="Grupo 1222643" transform="translate(1.158 0.643)">
        <path id="Trazado_1295183" data-name="Trazado 1295183" d="M15.5,15.81c.41-.237.741-.044.742.427l.021,7.536a1.627,1.627,0,0,1-.737,1.281l-2.812,1.624L10.9,30.593,9.078,28.78,6.265,30.4c-.41.237-.741.044-.742-.427L5.5,22.44a1.627,1.627,0,0,1,.737-1.281Z" transform="translate(-5.502 -15.708)" fill="#ffde9b"/>
      </g>
      <g id="Grupo_1222645" data-name="Grupo 1222645" transform="translate(3.647 4.451)">
        <g id="Grupo_1222644" data-name="Grupo 1222644">
          <path id="Trazado_1295184" data-name="Trazado 1295184" d="M11.243,19.161a.931.931,0,0,1,.884-.09,3.336,3.336,0,0,0,.72-.726,1.849,1.849,0,0,1-.453.986,3.1,3.1,0,0,0,.621-.527,2.915,2.915,0,0,1-.565,1.01,6.362,6.362,0,0,1-1.421,4.174,6.631,6.631,0,0,1-1.947,1.791,3.438,3.438,0,0,1-1.854.507s.036-.018.1-.054a4.748,4.748,0,0,0,1.613-1.51c-.046.018-.912.356-1.055-.32l.485-.31c-.047.011-.944.221-.911-.829l.472-.116c-.037-.012-.821-.247-.325-1.664a2.126,2.126,0,0,0,2.283.11q.083-.048.166-.105a2.373,2.373,0,0,1,.72-1.946,2,2,0,0,1,.471-.382Z" transform="translate(-7.226 -18.345)" fill="#4c5c75"/>
        </g>
      </g>
    </g>
    <g id="Grupo_1222653" data-name="Grupo 1222653" transform="translate(7.414 52.275)">
      <g id="Grupo_1222652" data-name="Grupo 1222652">
        <g id="Grupo_1222651" data-name="Grupo 1222651">
          <g id="Grupo_1222648" data-name="Grupo 1222648">
            <g id="Grupo_1222647" data-name="Grupo 1222647">
              <path id="Trazado_1295185" data-name="Trazado 1295185" d="M15.244,37.948,9.02,48.676,7.865,48a3.052,3.052,0,0,1-1.285-2.83,9.553,9.553,0,0,1,4.39-7.6,3.081,3.081,0,0,1,3.119-.3Z" transform="translate(-6.58 -36.971)" fill="#7e5af2"/>
            </g>
          </g>
          <g id="Grupo_1222650" data-name="Grupo 1222650" transform="translate(1.153 0.674)">
            <g id="Grupo_1222649" data-name="Grupo 1222649">
              <path id="Trazado_1295186" data-name="Trazado 1295186" d="M11.766,38.041c2.429-1.4,4.406-.275,4.414,2.519a9.67,9.67,0,0,1-4.385,7.6c-2.431,1.4-4.409.277-4.417-2.514a9.672,9.672,0,0,1,4.388-7.6Z" transform="translate(-7.378 -37.438)" fill="#b28afd"/>
            </g>
          </g>
        </g>
      </g>
    </g>
    <g id="Grupo_1222655" data-name="Grupo 1222655" transform="translate(10.697 55.921)">
      <g id="Grupo_1222654" data-name="Grupo 1222654">
        <path id="Trazado_1295187" data-name="Trazado 1295187" d="M13.034,41.564l-1.89,3.307L9.208,43.785c-.472-.283-.472-1.181,0-2.008a2.285,2.285,0,0,1,.874-.9.815.815,0,0,1,.85-.095l.189.142.165-.354a2.746,2.746,0,0,1,.874-.921.9.9,0,0,1,.874-.071c.472.26.472,1.157,0,1.984Z" transform="translate(-8.853 -39.496)" fill="#fff"/>
      </g>
    </g>
    <g id="Grupo_1222672" data-name="Grupo 1222672" transform="translate(48.611 13.099)">
      <g id="Grupo_1222662" data-name="Grupo 1222662" transform="translate(0 0)">
        <g id="Grupo_1222661" data-name="Grupo 1222661">
          <g id="Grupo_1222657" data-name="Grupo 1222657" transform="translate(2.719 15.982)">
            <g id="Grupo_1222656" data-name="Grupo 1222656">
              <path id="Trazado_1295188" data-name="Trazado 1295188" d="M38.159,27.619,37,26.945l-.009-3.022,3.366-3.015Z" transform="translate(-36.993 -20.908)" fill="#ced0ea"/>
            </g>
          </g>
          <g id="Grupo_1222658" data-name="Grupo 1222658">
            <path id="Trazado_1295189" data-name="Trazado 1295189" d="M53.867,10.572,36.554,30.6,35.4,29.936a.664.664,0,0,1-.26-.592l-.029-8.563a2,2,0,0,1,.91-1.56L52.047,9.966a.708.708,0,0,1,.664-.072Z" transform="translate(-35.11 -9.84)" fill="#ced0ea"/>
          </g>
          <g id="Grupo_1222660" data-name="Grupo 1222660" transform="translate(1.163 0.67)">
            <g id="Grupo_1222659" data-name="Grupo 1222659">
              <path id="Trazado_1295190" data-name="Trazado 1295190" d="M52.855,10.431c.5-.291.918-.063.919.508L53.8,19.5a2,2,0,0,1-.913,1.574L41.7,27.531l-3.062,4.8L38.629,29.3,36.852,30.33c-.5.291-.911.067-.912-.52l-.024-8.56a1.991,1.991,0,0,1,.906-1.562Z" transform="translate(-35.916 -10.304)" fill="#e9e7fc"/>
            </g>
          </g>
        </g>
      </g>
      <g id="Grupo_1222671" data-name="Grupo 1222671" transform="translate(2.719 3.018)">
        <g id="Grupo_1222664" data-name="Grupo 1222664">
          <g id="Grupo_1222663" data-name="Grupo 1222663">
            <path id="Trazado_1295191" data-name="Trazado 1295191" d="M51.641,11.979c.2-.117.365-.016.365.216a.8.8,0,0,1-.363.629L37.365,21.067c-.2.117-.371.028-.372-.2a.824.824,0,0,1,.37-.64Z" transform="translate(-36.992 -11.93)" fill="#4c5c75"/>
          </g>
        </g>
        <g id="Grupo_1222666" data-name="Grupo 1222666" transform="translate(0 2.012)">
          <g id="Grupo_1222665" data-name="Grupo 1222665">
            <path id="Trazado_1295192" data-name="Trazado 1295192" d="M51.641,13.372c.2-.117.365-.016.365.216a.8.8,0,0,1-.363.629L37.365,22.461c-.2.117-.371.028-.372-.2a.824.824,0,0,1,.37-.64Z" transform="translate(-36.992 -13.324)" fill="#4c5c75"/>
          </g>
        </g>
        <g id="Grupo_1222668" data-name="Grupo 1222668" transform="translate(0 4.024)">
          <g id="Grupo_1222667" data-name="Grupo 1222667">
            <path id="Trazado_1295193" data-name="Trazado 1295193" d="M51.641,14.766c.2-.117.365-.016.365.216a.8.8,0,0,1-.363.629L37.365,23.854c-.2.117-.371.028-.372-.2a.824.824,0,0,1,.37-.64Z" transform="translate(-36.992 -14.717)" fill="#4c5c75"/>
          </g>
        </g>
        <g id="Grupo_1222670" data-name="Grupo 1222670" transform="translate(0 8.904)">
          <g id="Grupo_1222669" data-name="Grupo 1222669">
            <path id="Trazado_1295194" data-name="Trazado 1295194" d="M46.673,18.146c.2-.117.365-.016.365.216a.8.8,0,0,1-.363.629l-9.311,5.376c-.2.117-.371.028-.372-.2a.824.824,0,0,1,.37-.64Z" transform="translate(-36.993 -18.097)" fill="#4c5c75"/>
          </g>
        </g>
      </g>
    </g>
  </g>
</svg>
