<svg xmlns="http://www.w3.org/2000/svg" width="64.019" height="64" viewBox="0 0 64.019 64">
  <g id="Grupo_1228508" data-name="Grupo 1228508" transform="translate(-1.491 -1.5)">
    <g id="Grupo_1228507" data-name="Grupo 1228507">
      <g id="Grupo_1228506" data-name="Grupo 1228506">
        <g id="Grupo_1228492" data-name="Grupo 1228492">
          <g id="Grupo_1228473" data-name="Grupo 1228473">
            <g id="Grupo_1228444" data-name="Grupo 1228444">
              <g id="Grupo_1228443" data-name="Grupo 1228443">
                <path id="Trazado_1307186" data-name="Trazado 1307186" d="M38.192,17.525l.047,26.935,6.1,3.545L44.292,21.07Z" fill="#82c6e0"/>
              </g>
            </g>
            <g id="Grupo_1228446" data-name="Grupo 1228446">
              <g id="Grupo_1228445" data-name="Grupo 1228445">
                <path id="Trazado_1307187" data-name="Trazado 1307187" d="M44.292,21.07l.047,26.935,6.14-3.545-.047-26.935Z" fill="#3f9ae0"/>
              </g>
            </g>
            <g id="Grupo_1228470" data-name="Grupo 1228470">
              <g id="Grupo_1228469" data-name="Grupo 1228469">
                <g id="Grupo_1228447" data-name="Grupo 1228447">
                  <path id="Trazado_1307188" data-name="Trazado 1307188" d="M63.339,39.026l-1.9-1.1,2.159-.776,1.9,1.1Z" fill="#c4c2c0"/>
                </g>
                <g id="Grupo_1228448" data-name="Grupo 1228448">
                  <path id="Trazado_1307189" data-name="Trazado 1307189" d="M52.656,60.492l-1.9-1.1-.473-2.545,1.9,1.1Z" fill="#c4c2c0"/>
                </g>
                <g id="Grupo_1228449" data-name="Grupo 1228449">
                  <path id="Trazado_1307190" data-name="Trazado 1307190" d="M50.381,53.553l-1.9-1.1c1.023.595,2.441.51,4.006-.393l1.9,1.1C52.822,54.063,51.4,54.148,50.381,53.553Z" fill="#b2b0af"/>
                </g>
                <g id="Grupo_1228450" data-name="Grupo 1228450">
                  <path id="Trazado_1307191" data-name="Trazado 1307191" d="M56.458,38.719l1.9,1.1A3.946,3.946,0,0,1,60,43.439a12.363,12.363,0,0,1-5.614,9.72l-1.9-1.1a12.363,12.363,0,0,0,5.614-9.72,3.946,3.946,0,0,0-1.643-3.616Z" fill="#b2b0af"/>
                </g>
                <g id="Grupo_1228451" data-name="Grupo 1228451">
                  <path id="Trazado_1307192" data-name="Trazado 1307192" d="M60.974,32.389l-1.9-1.1L61.556,32.7l1.9,1.1Z" fill="#e9e8e6"/>
                </g>
                <g id="Grupo_1228452" data-name="Grupo 1228452">
                  <path id="Trazado_1307193" data-name="Trazado 1307193" d="M45.278,59.575l-1.9-1.1,1.482-3.366,1.9,1.1Z" fill="#c4c2c0"/>
                </g>
                <g id="Grupo_1228453" data-name="Grupo 1228453">
                  <path id="Trazado_1307194" data-name="Trazado 1307194" d="M59.074,34.979l-1.9-1.1,1.9-2.59,1.9,1.1Z" fill="#c4c2c0"/>
                </g>
                <g id="Grupo_1228454" data-name="Grupo 1228454">
                  <path id="Trazado_1307195" data-name="Trazado 1307195" d="M55.363,40.6l1.9,1.1a2.882,2.882,0,0,0-2.907.286l-1.9-1.1A2.882,2.882,0,0,1,55.363,40.6Z" fill="#e9e8e6"/>
                </g>
                <g id="Grupo_1228455" data-name="Grupo 1228455">
                  <path id="Trazado_1307196" data-name="Trazado 1307196" d="M46.76,56.209l-1.9-1.1a6.118,6.118,0,0,1-.9-2.022l1.9,1.1a6.118,6.118,0,0,0,.9,2.022Z" fill="#b2b0af"/>
                </g>
                <g id="Grupo_1228456" data-name="Grupo 1228456">
                  <path id="Trazado_1307197" data-name="Trazado 1307197" d="M51.476,51.67l-1.9-1.1a2.86,2.86,0,0,1-1.192-2.621,8.969,8.969,0,0,1,4.072-7.055l1.9,1.1a8.969,8.969,0,0,0-4.072,7.055,2.86,2.86,0,0,0,1.192,2.621Z" fill="#c4c2c0"/>
                </g>
                <g id="Grupo_1228457" data-name="Grupo 1228457">
                  <path id="Trazado_1307198" data-name="Trazado 1307198" d="M56.53,35.309l-1.9-1.1a6.5,6.5,0,0,1,2.544-.33l1.9,1.1a6.5,6.5,0,0,0-2.544.33Z" fill="#b2b0af"/>
                </g>
                <g id="Grupo_1228458" data-name="Grupo 1228458">
                  <path id="Trazado_1307199" data-name="Trazado 1307199" d="M65.509,42.269l-2.156,1.715a18.592,18.592,0,0,1-1.112,3.683L63.5,49.055l-2.466,4.271-1.908-.391a18.416,18.416,0,0,1-2.537,2.6l-.436,2.935-3.5,2.018-.473-2.545a5.937,5.937,0,0,1-2.316.168L47.76,60.989l-2.482-1.414,1.482-3.366a6.118,6.118,0,0,1-.9-2.022l-2.62.941-.011-4.019,2.616-2.083a17.975,17.975,0,0,1,.888-3.053l-1.5-1.65L47.7,40.052l2.117.434a18.609,18.609,0,0,1,2.309-2.5l.457-3.081,3.5-2.018.451,2.424a6.5,6.5,0,0,1,2.544-.33l1.9-2.59L63.456,33.8,62.21,36.64a6.038,6.038,0,0,1,1.129,2.386L65.5,38.25ZM54.387,53.16A12.363,12.363,0,0,0,60,43.439c-.01-3.577-2.537-5.02-5.65-3.222a12.367,12.367,0,0,0-5.611,9.724c.01,3.574,2.537,5.015,5.648,3.219" fill="#d6d4d2"/>
                </g>
                <g id="Grupo_1228459" data-name="Grupo 1228459">
                  <path id="Trazado_1307200" data-name="Trazado 1307200" d="M54.356,41.994c2.259-1.3,4.091-.257,4.1,2.338a8.972,8.972,0,0,1-4.072,7.053c-2.259,1.3-4.091.255-4.1-2.336a8.969,8.969,0,0,1,4.072-7.055Z" fill="#d6d4d2"/>
                </g>
                <g id="Grupo_1228460" data-name="Grupo 1228460">
                  <path id="Trazado_1307201" data-name="Trazado 1307201" d="M45.843,49.026l-1.9-1.1a17.975,17.975,0,0,1,.888-3.053l1.9,1.1a17.975,17.975,0,0,0-.888,3.053Z" fill="#b2b0af"/>
                </g>
                <g id="Grupo_1228461" data-name="Grupo 1228461">
                  <path id="Trazado_1307202" data-name="Trazado 1307202" d="M49.818,40.487l-1.9-1.1a18.609,18.609,0,0,1,2.309-2.5l1.9,1.1a18.61,18.61,0,0,0-2.309,2.5Z" fill="#b2b0af"/>
                </g>
                <g id="Grupo_1228462" data-name="Grupo 1228462">
                  <path id="Trazado_1307203" data-name="Trazado 1307203" d="M43.227,51.108l-1.9-1.1,2.616-2.083,1.9,1.1Z" fill="#c4c2c0"/>
                </g>
                <g id="Grupo_1228463" data-name="Grupo 1228463">
                  <path id="Trazado_1307204" data-name="Trazado 1307204" d="M43.238,55.128l-1.9-1.1L41.327,50l1.9,1.1Z" fill="#e9e8e6"/>
                </g>
                <g id="Grupo_1228464" data-name="Grupo 1228464">
                  <path id="Trazado_1307205" data-name="Trazado 1307205" d="M52.127,37.985l-1.9-1.1.457-3.081,1.9,1.1Z" fill="#c4c2c0"/>
                </g>
                <g id="Grupo_1228465" data-name="Grupo 1228465">
                  <path id="Trazado_1307206" data-name="Trazado 1307206" d="M52.584,34.9l-1.9-1.1,3.5-2.018,1.9,1.1Z" fill="#e9e8e6"/>
                </g>
                <g id="Grupo_1228466" data-name="Grupo 1228466">
                  <path id="Trazado_1307207" data-name="Trazado 1307207" d="M46.731,45.973l-1.9-1.1-1.5-1.65,1.9,1.1Z" fill="#c4c2c0"/>
                </g>
                <g id="Grupo_1228467" data-name="Grupo 1228467">
                  <path id="Trazado_1307208" data-name="Trazado 1307208" d="M45.235,44.324l-1.9-1.1L45.8,38.949l1.9,1.1Z" fill="#e9e8e6"/>
                </g>
                <g id="Grupo_1228468" data-name="Grupo 1228468">
                  <path id="Trazado_1307209" data-name="Trazado 1307209" d="M47.7,40.053l-1.9-1.1,2.117.434,1.9,1.1Z" fill="#e9e8e6"/>
                </g>
              </g>
            </g>
            <g id="Grupo_1228472" data-name="Grupo 1228472">
              <g id="Grupo_1228471" data-name="Grupo 1228471">
                <path id="Trazado_1307210" data-name="Trazado 1307210" d="M38.192,17.525l6.1,3.545,6.14-3.545-6.1-3.545Z" fill="#b5e5f4"/>
              </g>
            </g>
          </g>
          <g id="Grupo_1228477" data-name="Grupo 1228477">
            <g id="Grupo_1228474" data-name="Grupo 1228474">
              <path id="Trazado_1307211" data-name="Trazado 1307211" d="M27.718,26.053l.047,24.4,6.045,3.513-.047-24.4Z" fill="#dd4a4a"/>
            </g>
            <g id="Grupo_1228475" data-name="Grupo 1228475">
              <path id="Trazado_1307212" data-name="Trazado 1307212" d="M33.763,29.566l.047,24.4L39.9,50.452l-.047-24.4Z" fill="#cc4848"/>
            </g>
            <g id="Grupo_1228476" data-name="Grupo 1228476">
              <path id="Trazado_1307213" data-name="Trazado 1307213" d="M27.718,26.053l6.045,3.513,6.086-3.514L33.8,22.539Z" fill="#f25a5a"/>
            </g>
          </g>
          <g id="Grupo_1228484" data-name="Grupo 1228484">
            <g id="Grupo_1228479" data-name="Grupo 1228479">
              <g id="Grupo_1228478" data-name="Grupo 1228478">
                <path id="Trazado_1307214" data-name="Trazado 1307214" d="M17.277,34.617l.046,21.788,5.958,3.462L23.235,38.08Z" fill="#efc348"/>
              </g>
            </g>
            <g id="Grupo_1228481" data-name="Grupo 1228481">
              <g id="Grupo_1228480" data-name="Grupo 1228480">
                <path id="Trazado_1307215" data-name="Trazado 1307215" d="M23.235,38.08l.046,21.788,6-3.463-.046-21.788Z" fill="#ddb040"/>
              </g>
            </g>
            <g id="Grupo_1228483" data-name="Grupo 1228483">
              <g id="Grupo_1228482" data-name="Grupo 1228482">
                <path id="Trazado_1307216" data-name="Trazado 1307216" d="M17.277,34.617l5.958,3.462,6-3.463-5.958-3.462Z" fill="#ffd651"/>
              </g>
            </g>
          </g>
          <g id="Grupo_1228491" data-name="Grupo 1228491">
            <g id="Grupo_1228486" data-name="Grupo 1228486">
              <g id="Grupo_1228485" data-name="Grupo 1228485">
                <path id="Trazado_1307217" data-name="Trazado 1307217" d="M6.974,43.373l.044,18.8L12.753,65.5l-.044-18.795Z" fill="#6dcb60"/>
              </g>
            </g>
            <g id="Grupo_1228488" data-name="Grupo 1228488">
              <g id="Grupo_1228487" data-name="Grupo 1228487">
                <path id="Trazado_1307218" data-name="Trazado 1307218" d="M12.709,46.705,12.753,65.5l5.773-3.333-.044-18.8Z" fill="#3db542"/>
              </g>
            </g>
            <g id="Grupo_1228490" data-name="Grupo 1228490">
              <g id="Grupo_1228489" data-name="Grupo 1228489">
                <path id="Trazado_1307219" data-name="Trazado 1307219" d="M6.974,43.373l5.735,3.333,5.773-3.333-5.735-3.333Z" fill="#81d672"/>
              </g>
            </g>
          </g>
        </g>
        <g id="Grupo_1228505" data-name="Grupo 1228505">
          <g id="Grupo_1228497" data-name="Grupo 1228497">
            <g id="Grupo_1228496" data-name="Grupo 1228496">
              <g id="Grupo_1228493" data-name="Grupo 1228493">
                <path id="Trazado_1307220" data-name="Trazado 1307220" d="M38.644,5.4l.078,2.88,10.359,4.312L49,9.71Z" fill="#006cb5"/>
              </g>
              <g id="Grupo_1228494" data-name="Grupo 1228494">
                <path id="Trazado_1307221" data-name="Trazado 1307221" d="M49,9.71l.078,2.88,2.693-8.21L51.7,1.5Z" fill="#00649b"/>
              </g>
              <g id="Grupo_1228495" data-name="Grupo 1228495">
                <path id="Trazado_1307222" data-name="Trazado 1307222" d="M38.644,5.4,49,9.71,51.7,1.5Z" fill="#0074d1"/>
              </g>
            </g>
          </g>
          <g id="Grupo_1228504" data-name="Grupo 1228504">
            <g id="Grupo_1228503" data-name="Grupo 1228503">
              <g id="Grupo_1228498" data-name="Grupo 1228498">
                <path id="Trazado_1307223" data-name="Trazado 1307223" d="M46.9,8.839,41.7,5.438C35.8,14.167,29.095,19.3,22,24.725,15.513,29.691,8.8,34.829,1.491,43.3L6.7,46.637c7.311-8.467,14.022-13.606,20.511-18.571C34.3,22.636,41,17.567,46.9,8.839Z" fill="#0074d1"/>
              </g>
              <g id="Grupo_1228499" data-name="Grupo 1228499">
                <path id="Trazado_1307224" data-name="Trazado 1307224" d="M6.7,46.637,1.491,43.3l.124,2.484,5.206,3.341Z" fill="#006cb5"/>
              </g>
              <g id="Grupo_1228500" data-name="Grupo 1228500">
                <path id="Trazado_1307225" data-name="Trazado 1307225" d="M46.9,8.839c-5.9,8.729-12.6,13.8-19.694,19.227-6.489,4.966-13.2,10.1-20.511,18.571l.124,2.484C14.1,40.7,20.785,35.578,27.255,30.624,34.384,25.168,40.933,20.352,46.9,11.683V8.839Z" fill="#00649b"/>
              </g>
              <g id="Grupo_1228501" data-name="Grupo 1228501">
                <path id="Trazado_1307226" data-name="Trazado 1307226" d="M27.208,28.066c-2.565,1.963-5.165,3.956-7.822,6.167v2.6c2.673-2.227,5.289-4.233,7.87-6.209C34.384,25.168,40.933,20.352,46.9,11.683V8.839c-5.9,8.729-12.6,13.8-19.694,19.227Z" fill="#005e87"/>
              </g>
              <g id="Grupo_1228502" data-name="Grupo 1228502">
                <path id="Trazado_1307227" data-name="Trazado 1307227" d="M35.8,21.2v2.656A61.727,61.727,0,0,0,46.9,11.683V8.839A62.2,62.2,0,0,1,35.8,21.2Z" fill="#00649b"/>
              </g>
            </g>
          </g>
        </g>
      </g>
    </g>
  </g>
</svg>
