<svg xmlns="http://www.w3.org/2000/svg" width="67.163" height="76.942" viewBox="0 0 67.163 76.942">
  <g id="_x32_6" transform="translate(-13.101 -7)">
    <g id="Grupo_1222850" data-name="Grupo 1222850" transform="translate(13.101 7)">
      <g id="Grupo_1222794" data-name="Grupo 1222794">
        <g id="Grupo_1222708" data-name="Grupo 1222708">
          <g id="Grupo_1222707" data-name="Grupo 1222707">
            <g id="Grupo_1222706" data-name="Grupo 1222706">
              <g id="Grupo_1222705" data-name="Grupo 1222705">
                <g id="Grupo_1222704" data-name="Grupo 1222704">
                  <g id="Grupo_1222675" data-name="Grupo 1222675" transform="translate(7.479 46.505)">
                    <g id="Grupo_1222673" data-name="Grupo 1222673">
                      <path id="Trazado_1295195" data-name="Trazado 1295195" d="M55.825,72.27l-.663.38L34.91,84.344a3.175,3.175,0,0,1-2.934,0L23.1,79.176l-.049-.025c-.822-.479-.816-1.221.006-1.7L43.968,65.378a3.212,3.212,0,0,1,2.934,0l8.93,5.192c.822.479.816,1.221-.006,1.7Z" transform="translate(-22.432 -65.023)" fill="#3a63df"/>
                    </g>
                    <g id="Grupo_1222674" data-name="Grupo 1222674" transform="translate(0.663 2.107)">
                      <path id="Trazado_1295196" data-name="Trazado 1295196" d="M55.326,73.172,35.074,84.866a3.175,3.175,0,0,1-2.934,0L23.259,79.7,43.506,68.011a3.176,3.176,0,0,1,2.934,0Z" transform="translate(-23.259 -67.652)" fill="#4f91ff"/>
                    </g>
                  </g>
                  <g id="Grupo_1222696" data-name="Grupo 1222696" transform="translate(16.551 41.7)">
                    <g id="Grupo_1222695" data-name="Grupo 1222695" transform="translate(0)">
                      <g id="Grupo_1222694" data-name="Grupo 1222694">
                        <g id="Grupo_1222693" data-name="Grupo 1222693">
                          <g id="Grupo_1222692" data-name="Grupo 1222692">
                            <g id="Grupo_1222691" data-name="Grupo 1222691">
                              <g id="Grupo_1222690" data-name="Grupo 1222690">
                                <g id="Grupo_1222689" data-name="Grupo 1222689">
                                  <g id="Grupo_1222688" data-name="Grupo 1222688">
                                    <g id="Grupo_1222677" data-name="Grupo 1222677" transform="translate(1.242 7.908)">
                                      <g id="Grupo_1222676" data-name="Grupo 1222676">
                                        <path id="Trazado_1295197" data-name="Trazado 1295197" d="M35.324,73.939,44,68.9a2.9,2.9,0,0,0,1.331,2.622l-8.68,5.044a2.9,2.9,0,0,1-1.331-2.622Z" transform="translate(-35.3 -68.895)" fill="#ebf2ff"/>
                                      </g>
                                    </g>
                                    <g id="Grupo_1222679" data-name="Grupo 1222679" transform="translate(2.596 10.53)">
                                      <g id="Grupo_1222678" data-name="Grupo 1222678">
                                        <path id="Trazado_1295198" data-name="Trazado 1295198" d="M36.99,77.21l8.68-5.044,3.017,1.742-8.68,5.044Z" transform="translate(-36.99 -72.166)" fill="#ebf2ff"/>
                                      </g>
                                    </g>
                                    <g id="Grupo_1222681" data-name="Grupo 1222681" transform="translate(5.609 12.272)">
                                      <g id="Grupo_1222680" data-name="Grupo 1222680">
                                        <path id="Trazado_1295199" data-name="Trazado 1295199" d="M40.753,79.384l8.68-5.044,0,1.426-8.68,5.044Z" transform="translate(-40.749 -74.34)" fill="#cbdbf4"/>
                                      </g>
                                    </g>
                                    <g id="Grupo_1222683" data-name="Grupo 1222683" transform="translate(1.265 0.967)">
                                      <g id="Grupo_1222682" data-name="Grupo 1222682">
                                        <path id="Trazado_1295200" data-name="Trazado 1295200" d="M36.592,65.279l8.68-5.044-1.263,6.941L35.33,72.22Z" transform="translate(-35.33 -60.235)" fill="#ebf2ff"/>
                                      </g>
                                    </g>
                                    <g id="Grupo_1222685" data-name="Grupo 1222685" transform="translate(1.31)">
                                      <g id="Grupo_1222684" data-name="Grupo 1222684">
                                        <path id="Trazado_1295201" data-name="Trazado 1295201" d="M35.386,64.073l8.68-5.044L45.283,60,36.6,65.04Z" transform="translate(-35.386 -59.028)" fill="#dbe6fa"/>
                                      </g>
                                    </g>
                                    <g id="Grupo_1222687" data-name="Grupo 1222687" transform="translate(0 5.044)">
                                      <g id="Grupo_1222686" data-name="Grupo 1222686">
                                        <path id="Trazado_1295202" data-name="Trazado 1295202" d="M35.061,65.322l1.218.967L35.016,73.23a2.435,2.435,0,0,0,.287,1.453,2.861,2.861,0,0,0,1.044,1.169l3.017,1.742,0,1.426-3.017-1.742A5.514,5.514,0,0,1,33.8,72.263Z" transform="translate(-33.751 -65.322)" fill="#bbcfef"/>
                                      </g>
                                    </g>
                                  </g>
                                </g>
                              </g>
                            </g>
                          </g>
                        </g>
                      </g>
                    </g>
                  </g>
                  <g id="Grupo_1222703" data-name="Grupo 1222703">
                    <g id="Grupo_1222698" data-name="Grupo 1222698">
                      <g id="Grupo_1222697" data-name="Grupo 1222697">
                        <path id="Trazado_1295203" data-name="Trazado 1295203" d="M56.917,8.826a1.421,1.421,0,0,0-1.435.14L18.015,30.6a4.424,4.424,0,0,0-2.007,3.477l.085,29.832a1.4,1.4,0,0,0,.587,1.293l-2.908-1.689a1.4,1.4,0,0,1-.587-1.293L13.1,32.385a4.424,4.424,0,0,1,2.007-3.477L52.574,7.276a1.417,1.417,0,0,1,1.433-.14Z" transform="translate(-13.101 -7)" fill="#ebf2ff"/>
                      </g>
                    </g>
                    <g id="Grupo_1222699" data-name="Grupo 1222699" transform="translate(0.006 21.902)">
                      <path id="Trazado_1295204" data-name="Trazado 1295204" d="M16.011,39.5,16.1,69.326a1.415,1.415,0,0,0,.586,1.3L13.769,68.93a1.391,1.391,0,0,1-.586-1.283L13.108,37.8a4.394,4.394,0,0,1,2.006-3.477l2.9,1.692A4.461,4.461,0,0,0,16.011,39.5Z" transform="translate(-13.108 -34.327)" fill="#bbcfef"/>
                    </g>
                    <g id="Grupo_1222702" data-name="Grupo 1222702" transform="translate(2.908 1.689)">
                      <g id="Grupo_1222700" data-name="Grupo 1222700">
                        <path id="Trazado_1295205" data-name="Trazado 1295205" d="M58.308,40.367A4.424,4.424,0,0,1,56.3,43.845L18.834,65.477c-1.112.642-2.018.127-2.02-1.153l-.085-29.832a4.424,4.424,0,0,1,2.007-3.477L56.2,9.384c1.114-.642,2.018-.127,2.022,1.151l.083,29.832Z" transform="translate(-16.728 -9.107)" fill="#dbe6fa"/>
                      </g>
                      <g id="Grupo_1222701" data-name="Grupo 1222701" transform="translate(1.567 2.716)">
                        <path id="Trazado_1295206" data-name="Trazado 1295206" d="M56.675,36.963a1.447,1.447,0,0,1-.727,1.255l-36.1,20.838a.728.728,0,0,1-1.087-.623L18.7,39.6l-.016-4.868A1.423,1.423,0,0,1,19.4,33.48L55.516,12.594a.727.727,0,0,1,1.087.623l.072,23.745Z" transform="translate(-18.684 -12.496)" fill="#4f575f"/>
                      </g>
                    </g>
                  </g>
                </g>
              </g>
            </g>
          </g>
        </g>
        <g id="Grupo_1222780" data-name="Grupo 1222780" transform="translate(21.771 52.72)">
          <g id="Grupo_1222717" data-name="Grupo 1222717">
            <g id="Grupo_1222716" data-name="Grupo 1222716">
              <g id="Grupo_1222715" data-name="Grupo 1222715">
                <g id="Grupo_1222710" data-name="Grupo 1222710" transform="translate(0 7.461)">
                  <g id="Grupo_1222709" data-name="Grupo 1222709">
                    <path id="Trazado_1295207" data-name="Trazado 1295207" d="M79.706,82.087l0,1.355a1,1,0,0,1-.589.825L54.611,98.5a3.161,3.161,0,0,1-2.869,0L40.864,92.225a1.02,1.02,0,0,1-.6-.838l0-1.35a1.015,1.015,0,0,0,.6.833l10.877,6.281a3.161,3.161,0,0,0,2.869,0l24.5-14.239a1.009,1.009,0,0,0,.589-.825Z" transform="translate(-40.264 -82.087)" fill="#bbcfef"/>
                  </g>
                </g>
                <g id="Grupo_1222712" data-name="Grupo 1222712" transform="translate(13.222 7.461)">
                  <g id="Grupo_1222711" data-name="Grupo 1222711">
                    <path id="Trazado_1295208" data-name="Trazado 1295208" d="M82.391,82.912l-24.5,14.239a2.745,2.745,0,0,1-1.129.33v1.353a2.743,2.743,0,0,0,1.125-.33l24.5-14.237a1,1,0,0,0,.589-.825l0-1.355a1.009,1.009,0,0,1-.589.825Z" transform="translate(-56.761 -82.087)" fill="#93acd1"/>
                  </g>
                </g>
                <g id="Grupo_1222714" data-name="Grupo 1222714" transform="translate(0.005)">
                  <g id="Grupo_1222713" data-name="Grupo 1222713">
                    <path id="Trazado_1295209" data-name="Trazado 1295209" d="M79.107,79.4a.878.878,0,0,1,.009,1.662L54.616,95.3a3.16,3.16,0,0,1-2.869,0L40.87,89.023a.878.878,0,0,1-.01-1.662l24.5-14.238a3.162,3.162,0,0,1,2.87,0Z" transform="translate(-40.27 -72.778)" fill="#cbdbf4"/>
                  </g>
                </g>
              </g>
            </g>
          </g>
          <g id="Grupo_1222779" data-name="Grupo 1222779" transform="translate(3.074 1.498)">
            <g id="Grupo_1222720" data-name="Grupo 1222720" transform="translate(20.923)">
              <g id="Grupo_1222719" data-name="Grupo 1222719">
                <g id="Grupo_1222718" data-name="Grupo 1222718">
                  <path id="Trazado_1295210" data-name="Trazado 1295210" d="M74.769,75.791a.237.237,0,0,1,0,.447l-1.81,1.052a.85.85,0,0,1-.771,0l-1.821-1.051a.237.237,0,0,1,0-.447l1.81-1.052a.855.855,0,0,1,.773,0Z" transform="translate(-70.206 -74.647)" fill="#fff"/>
                </g>
              </g>
            </g>
            <g id="Grupo_1222723" data-name="Grupo 1222723" transform="translate(16.74 2.432)">
              <g id="Grupo_1222722" data-name="Grupo 1222722">
                <g id="Grupo_1222721" data-name="Grupo 1222721">
                  <path id="Trazado_1295211" data-name="Trazado 1295211" d="M69.547,78.826a.236.236,0,0,1,0,.447L67.74,80.324a.848.848,0,0,1-.771,0l-1.821-1.051a.236.236,0,0,1,0-.447l1.809-1.051a.851.851,0,0,1,.772,0Z" transform="translate(-64.986 -77.681)" fill="#fff"/>
                </g>
              </g>
            </g>
            <g id="Grupo_1222726" data-name="Grupo 1222726" transform="translate(12.554 4.864)">
              <g id="Grupo_1222725" data-name="Grupo 1222725">
                <g id="Grupo_1222724" data-name="Grupo 1222724">
                  <path id="Trazado_1295212" data-name="Trazado 1295212" d="M64.326,81.86a.236.236,0,0,1,0,.447l-1.809,1.051a.848.848,0,0,1-.771,0l-1.821-1.051a.236.236,0,0,1,0-.447l1.809-1.051a.853.853,0,0,1,.773,0Z" transform="translate(-59.764 -80.715)" fill="#fff"/>
                </g>
              </g>
            </g>
            <g id="Grupo_1222729" data-name="Grupo 1222729" transform="translate(8.37 7.295)">
              <g id="Grupo_1222728" data-name="Grupo 1222728">
                <g id="Grupo_1222727" data-name="Grupo 1222727">
                  <path id="Trazado_1295213" data-name="Trazado 1295213" d="M59.105,84.894a.236.236,0,0,1,0,.447L57.3,86.392a.852.852,0,0,1-.772,0L54.7,85.342a.237.237,0,0,1,0-.448l1.81-1.052a.852.852,0,0,1,.772,0Z" transform="translate(-54.543 -83.749)" fill="#fff"/>
                </g>
              </g>
            </g>
            <g id="Grupo_1222732" data-name="Grupo 1222732" transform="translate(4.187 9.726)">
              <g id="Grupo_1222731" data-name="Grupo 1222731">
                <g id="Grupo_1222730" data-name="Grupo 1222730">
                  <path id="Trazado_1295214" data-name="Trazado 1295214" d="M53.886,87.927a.236.236,0,0,1,0,.447l-1.809,1.051a.848.848,0,0,1-.771,0l-1.821-1.051a.236.236,0,0,1,0-.447l1.809-1.051a.853.853,0,0,1,.773,0Z" transform="translate(-49.324 -86.783)" fill="#fff"/>
                </g>
              </g>
            </g>
            <g id="Grupo_1222735" data-name="Grupo 1222735" transform="translate(0.002 12.158)">
              <g id="Grupo_1222734" data-name="Grupo 1222734">
                <g id="Grupo_1222733" data-name="Grupo 1222733">
                  <path id="Trazado_1295215" data-name="Trazado 1295215" d="M48.665,90.961a.236.236,0,0,1,0,.447l-1.81,1.052a.851.851,0,0,1-.772,0l-1.821-1.051a.237.237,0,0,1,0-.448l1.81-1.052a.852.852,0,0,1,.772,0Z" transform="translate(-44.103 -89.816)" fill="#fff"/>
                </g>
              </g>
            </g>
            <g id="Grupo_1222738" data-name="Grupo 1222738" transform="translate(24.649 2.151)">
              <g id="Grupo_1222737" data-name="Grupo 1222737">
                <g id="Grupo_1222736" data-name="Grupo 1222736">
                  <path id="Trazado_1295216" data-name="Trazado 1295216" d="M79.418,78.475a.237.237,0,0,1,0,.448l-1.81,1.052a.854.854,0,0,1-.772,0l-1.821-1.051a.236.236,0,0,1,0-.447l1.81-1.052a.853.853,0,0,1,.773,0Z" transform="translate(-74.854 -77.331)" fill="#fff"/>
                </g>
              </g>
            </g>
            <g id="Grupo_1222741" data-name="Grupo 1222741" transform="translate(20.465 4.583)">
              <g id="Grupo_1222740" data-name="Grupo 1222740">
                <g id="Grupo_1222739" data-name="Grupo 1222739">
                  <path id="Trazado_1295217" data-name="Trazado 1295217" d="M74.2,81.51a.237.237,0,0,1,0,.447L72.39,83.009a.853.853,0,0,1-.772,0L69.8,81.957c-.215-.124-.216-.324,0-.447L71.6,80.458a.849.849,0,0,1,.772,0Z" transform="translate(-69.634 -80.365)" fill="#fff"/>
                </g>
              </g>
            </g>
            <g id="Grupo_1222744" data-name="Grupo 1222744" transform="translate(28.375 4.302)">
              <g id="Grupo_1222743" data-name="Grupo 1222743">
                <g id="Grupo_1222742" data-name="Grupo 1222742">
                  <path id="Trazado_1295218" data-name="Trazado 1295218" d="M84.066,81.159a.237.237,0,0,1,0,.447l-1.81,1.052a.852.852,0,0,1-.771,0l-1.822-1.052a.237.237,0,0,1,0-.447l1.81-1.052a.857.857,0,0,1,.773,0Z" transform="translate(-79.503 -80.015)" fill="#fff"/>
                </g>
              </g>
            </g>
            <g id="Grupo_1222747" data-name="Grupo 1222747" transform="translate(16.28 7.015)">
              <g id="Grupo_1222746" data-name="Grupo 1222746">
                <g id="Grupo_1222745" data-name="Grupo 1222745">
                  <path id="Trazado_1295219" data-name="Trazado 1295219" d="M68.975,84.544a.237.237,0,0,1,0,.448l-1.809,1.051a.852.852,0,0,1-.772,0l-1.822-1.052a.236.236,0,0,1,0-.447l1.809-1.051a.851.851,0,0,1,.772,0Z" transform="translate(-64.412 -83.399)" fill="#fff"/>
                </g>
              </g>
            </g>
            <g id="Grupo_1222750" data-name="Grupo 1222750" transform="translate(12.095 9.446)">
              <g id="Grupo_1222749" data-name="Grupo 1222749">
                <g id="Grupo_1222748" data-name="Grupo 1222748">
                  <path id="Trazado_1295220" data-name="Trazado 1295220" d="M63.754,87.578a.237.237,0,0,1,0,.447l-1.81,1.052a.857.857,0,0,1-.773,0l-1.822-1.052a.237.237,0,0,1,0-.447l1.81-1.052a.85.85,0,0,1,.771,0Z" transform="translate(-59.191 -86.433)" fill="#fff"/>
                </g>
              </g>
            </g>
            <g id="Grupo_1222753" data-name="Grupo 1222753" transform="translate(7.913 11.877)">
              <g id="Grupo_1222752" data-name="Grupo 1222752">
                <g id="Grupo_1222751" data-name="Grupo 1222751">
                  <path id="Trazado_1295221" data-name="Trazado 1295221" d="M58.535,90.611a.237.237,0,0,1,0,.448L56.728,92.11a.853.853,0,0,1-.772,0l-1.821-1.051c-.215-.124-.216-.324,0-.447l1.809-1.051a.851.851,0,0,1,.773,0Z" transform="translate(-53.972 -89.466)" fill="#fff"/>
                </g>
              </g>
            </g>
            <g id="Grupo_1222756" data-name="Grupo 1222756" transform="translate(11.638 6.734)">
              <g id="Grupo_1222755" data-name="Grupo 1222755">
                <g id="Grupo_1222754" data-name="Grupo 1222754">
                  <path id="Trazado_1295222" data-name="Trazado 1295222" d="M75.736,84.194a.236.236,0,0,1,0,.447L61.376,92.987a.852.852,0,0,1-.772,0l-1.822-1.052a.237.237,0,0,1,0-.448L73.14,83.142a.853.853,0,0,1,.773,0Z" transform="translate(-58.62 -83.049)" fill="#fff"/>
                </g>
              </g>
            </g>
            <g id="Grupo_1222759" data-name="Grupo 1222759" transform="translate(3.728 14.309)">
              <g id="Grupo_1222758" data-name="Grupo 1222758">
                <g id="Grupo_1222757" data-name="Grupo 1222757">
                  <path id="Trazado_1295223" data-name="Trazado 1295223" d="M53.314,93.645a.237.237,0,0,1,0,.447l-1.81,1.052a.855.855,0,0,1-.773,0l-1.821-1.051a.237.237,0,0,1,0-.448l1.81-1.052a.851.851,0,0,1,.772,0Z" transform="translate(-48.751 -92.5)" fill="#fff"/>
                </g>
              </g>
            </g>
            <g id="Grupo_1222778" data-name="Grupo 1222778" transform="translate(0 1.367)">
              <g id="Grupo_1222775" data-name="Grupo 1222775">
                <g id="Grupo_1222760" data-name="Grupo 1222760" transform="translate(0 12.157)">
                  <path id="Trazado_1295224" data-name="Trazado 1295224" d="M48.665,92.422l-1.81,1.053a.852.852,0,0,1-.773,0l-1.821-1.052A.274.274,0,0,1,44.1,92.2l0-.677a.273.273,0,0,0,.161.226L46.085,92.8a.851.851,0,0,0,.772,0l1.811-1.052a.272.272,0,0,0,.158-.222l0,.677a.271.271,0,0,1-.158.221Z" transform="translate(-44.1 -91.522)" fill="#bbcfef"/>
                </g>
                <g id="Grupo_1222761" data-name="Grupo 1222761" transform="translate(12.552 4.862)">
                  <path id="Trazado_1295225" data-name="Trazado 1295225" d="M59.761,83.1l0-.677a.274.274,0,0,0,.162.226L61.746,83.7a.849.849,0,0,0,.772,0l1.809-1.052a.273.273,0,0,0,.159-.223l0,.677a.272.272,0,0,1-.159.223l-1.809,1.052a.849.849,0,0,1-.772,0l-1.821-1.052a.274.274,0,0,1-.162-.226Z" transform="translate(-59.761 -82.42)" fill="#bbcfef"/>
                </g>
                <g id="Grupo_1222762" data-name="Grupo 1222762" transform="translate(4.185 9.725)">
                  <path id="Trazado_1295226" data-name="Trazado 1295226" d="M49.322,89.163l0-.677a.275.275,0,0,0,.162.226l1.821,1.052a.849.849,0,0,0,.772,0l1.809-1.052a.272.272,0,0,0,.159-.223l0,.677a.271.271,0,0,1-.159.223l-1.809,1.052a.848.848,0,0,1-.771,0l-1.822-1.052A.274.274,0,0,1,49.322,89.163Z" transform="translate(-49.322 -88.486)" fill="#bbcfef"/>
                </g>
                <g id="Grupo_1222763" data-name="Grupo 1222763" transform="translate(3.726 14.309)">
                  <path id="Trazado_1295227" data-name="Trazado 1295227" d="M53.316,95.108l-1.81,1.052a.855.855,0,0,1-.774,0l-1.821-1.052a.275.275,0,0,1-.162-.226l0-.677a.274.274,0,0,0,.161.226l1.822,1.052a.854.854,0,0,0,.773,0l1.81-1.052a.271.271,0,0,0,.158-.221l0,.677a.27.27,0,0,1-.157.221Z" transform="translate(-48.749 -94.206)" fill="#bbcfef"/>
                </g>
                <g id="Grupo_1222764" data-name="Grupo 1222764" transform="translate(8.368 7.295)">
                  <path id="Trazado_1295228" data-name="Trazado 1295228" d="M54.541,86.131l0-.676a.273.273,0,0,0,.161.225l1.822,1.052a.852.852,0,0,0,.772,0l1.81-1.052a.27.27,0,0,0,.158-.222l0,.677a.272.272,0,0,1-.158.222l-1.811,1.052a.852.852,0,0,1-.772,0L54.7,86.357a.272.272,0,0,1-.161-.226Z" transform="translate(-54.541 -85.455)" fill="#bbcfef"/>
                </g>
                <g id="Grupo_1222765" data-name="Grupo 1222765" transform="translate(7.452 16.459)">
                  <path id="Trazado_1295229" data-name="Trazado 1295229" d="M58.123,96.892l0,.677a.271.271,0,0,1-.158.222l-1.81,1.052a.852.852,0,0,1-.772,0l-1.823-1.052a.273.273,0,0,1-.16-.226l0-.677a.275.275,0,0,0,.161.226l1.822,1.052a.853.853,0,0,0,.773,0l1.81-1.052A.271.271,0,0,0,58.123,96.892Z" transform="translate(-53.398 -96.889)" fill="#bbcfef"/>
                </g>
                <g id="Grupo_1222766" data-name="Grupo 1222766" transform="translate(7.911 11.876)">
                  <path id="Trazado_1295230" data-name="Trazado 1295230" d="M58.537,91.4a.272.272,0,0,0,.158-.223l0,.677a.271.271,0,0,1-.158.223l-1.809,1.052a.853.853,0,0,1-.773,0l-1.821-1.052a.274.274,0,0,1-.162-.226l0-.677a.275.275,0,0,0,.163.226l1.821,1.052a.853.853,0,0,0,.773,0Z" transform="translate(-53.97 -91.171)" fill="#bbcfef"/>
                </g>
                <g id="Grupo_1222767" data-name="Grupo 1222767" transform="translate(12.094 9.446)">
                  <path id="Trazado_1295231" data-name="Trazado 1295231" d="M61.172,90.092,59.349,89.04a.271.271,0,0,1-.16-.225l0-.677a.273.273,0,0,0,.16.225l1.822,1.052a.857.857,0,0,0,.774,0l1.81-1.052a.269.269,0,0,0,.157-.221l0,.677a.27.27,0,0,1-.158.221l-1.81,1.052a.856.856,0,0,1-.773,0Z" transform="translate(-59.189 -88.139)" fill="#bbcfef"/>
                </g>
                <g id="Grupo_1222768" data-name="Grupo 1222768" transform="translate(16.738 2.431)">
                  <path id="Trazado_1295232" data-name="Trazado 1295232" d="M64.983,80.062l0-.676a.274.274,0,0,0,.161.225l1.822,1.052a.848.848,0,0,0,.771,0l1.809-1.052a.271.271,0,0,0,.159-.222l0,.677a.27.27,0,0,1-.159.222l-1.809,1.052a.848.848,0,0,1-.771,0l-1.821-1.052A.274.274,0,0,1,64.983,80.062Z" transform="translate(-64.983 -79.386)" fill="#bbcfef"/>
                </g>
                <g id="Grupo_1222769" data-name="Grupo 1222769" transform="translate(24.647 2.151)">
                  <path id="Trazado_1295233" data-name="Trazado 1295233" d="M75.015,79.262l1.822,1.051a.854.854,0,0,0,.772,0l1.81-1.052a.272.272,0,0,0,.158-.223l0,.677a.271.271,0,0,1-.158.222l-1.811,1.053a.854.854,0,0,1-.772,0l-1.821-1.051a.274.274,0,0,1-.162-.226l0-.676a.274.274,0,0,0,.161.225Z" transform="translate(-74.852 -79.037)" fill="#bbcfef"/>
                </g>
                <g id="Grupo_1222770" data-name="Grupo 1222770" transform="translate(20.463 4.582)">
                  <path id="Trazado_1295234" data-name="Trazado 1295234" d="M71.616,84.023l-1.822-1.052a.274.274,0,0,1-.162-.226l0-.676a.274.274,0,0,0,.162.225l1.821,1.052a.853.853,0,0,0,.773,0L74.2,82.3a.269.269,0,0,0,.158-.221l0,.677a.268.268,0,0,1-.158.221l-1.809,1.052a.852.852,0,0,1-.772,0Z" transform="translate(-69.632 -82.07)" fill="#bbcfef"/>
                </g>
                <g id="Grupo_1222771" data-name="Grupo 1222771" transform="translate(11.636 6.736)">
                  <path id="Trazado_1295235" data-name="Trazado 1295235" d="M75.9,84.758l0,.677a.272.272,0,0,1-.159.223L61.374,94a.853.853,0,0,1-.773,0l-1.822-1.052a.273.273,0,0,1-.161-.226l0-.676a.273.273,0,0,0,.161.225L60.6,93.327a.852.852,0,0,0,.772,0L75.737,84.98a.272.272,0,0,0,.159-.223Z" transform="translate(-58.618 -84.758)" fill="#bbcfef"/>
                </g>
                <g id="Grupo_1222772" data-name="Grupo 1222772" transform="translate(16.278 7.015)">
                  <path id="Trazado_1295236" data-name="Trazado 1295236" d="M66.393,87.058l-1.822-1.052a.274.274,0,0,1-.162-.225l0-.676a.272.272,0,0,0,.161.224L66.4,86.381a.85.85,0,0,0,.772,0l1.81-1.051a.273.273,0,0,0,.158-.223l0,.677a.271.271,0,0,1-.158.222l-1.809,1.052a.852.852,0,0,1-.773,0Z" transform="translate(-64.41 -85.105)" fill="#bbcfef"/>
                </g>
                <g id="Grupo_1222773" data-name="Grupo 1222773" transform="translate(20.921)">
                  <path id="Trazado_1295237" data-name="Trazado 1295237" d="M70.2,77.029l0-.676a.274.274,0,0,0,.161.225l1.821,1.051a.848.848,0,0,0,.771,0l1.811-1.052a.273.273,0,0,0,.159-.223l0,.677a.272.272,0,0,1-.159.222l-1.81,1.052a.851.851,0,0,1-.772,0l-1.821-1.052A.272.272,0,0,1,70.2,77.029Z" transform="translate(-70.203 -76.353)" fill="#bbcfef"/>
                </g>
                <g id="Grupo_1222774" data-name="Grupo 1222774" transform="translate(28.373 4.301)">
                  <path id="Trazado_1295238" data-name="Trazado 1295238" d="M84.226,81.722l0,.677a.272.272,0,0,1-.159.223l-1.81,1.052a.852.852,0,0,1-.771,0l-1.823-1.052A.275.275,0,0,1,79.5,82.4l0-.677a.275.275,0,0,0,.161.226L81.485,83a.856.856,0,0,0,.772,0l1.81-1.053A.27.27,0,0,0,84.226,81.722Z" transform="translate(-79.5 -81.719)" fill="#bbcfef"/>
                </g>
              </g>
              <g id="Grupo_1222777" data-name="Grupo 1222777" transform="translate(7.454 15.093)">
                <g id="Grupo_1222776" data-name="Grupo 1222776">
                  <path id="Trazado_1295239" data-name="Trazado 1295239" d="M57.963,96.329a.236.236,0,0,1,0,.447l-1.81,1.052a.853.853,0,0,1-.772,0l-1.822-1.052a.237.237,0,0,1,0-.448l1.81-1.052a.854.854,0,0,1,.772,0Z" transform="translate(-53.4 -95.184)" fill="#fff"/>
                </g>
              </g>
            </g>
          </g>
        </g>
        <g id="Grupo_1222793" data-name="Grupo 1222793" transform="translate(55.261 48.659)">
          <g id="Grupo_1222786" data-name="Grupo 1222786">
            <g id="Grupo_1222781" data-name="Grupo 1222781" transform="translate(0 0)">
              <path id="Trazado_1295240" data-name="Trazado 1295240" d="M93.875,73.9c-.221.621-2.262,1.534-3.794,1.534s-2.465-1.2-3.286-2.505a3.774,3.774,0,0,0-3.756-1.412c-1.011.25-.981-.6-.981-.6a2.74,2.74,0,0,1,1.6-2.764c1.783-.969,4.2-.142,6.039.691A10.37,10.37,0,0,1,93.424,72.2s.681,1.072.451,1.693Z" transform="translate(-82.049 -67.712)" fill="#cbdbf4"/>
            </g>
            <g id="Grupo_1222782" data-name="Grupo 1222782" transform="translate(0.004 3.124)">
              <path id="Trazado_1295241" data-name="Trazado 1295241" d="M92.073,76.4a5.717,5.717,0,0,1-4.917-.941,24.7,24.7,0,0,0-4.357-2.3,1.041,1.041,0,0,1-.741-.918l0-.633c0,.083.03.916.985.679A3.774,3.774,0,0,1,86.8,73.7c.821,1.3,1.754,2.505,3.286,2.505s3.574-.913,3.794-1.534a.962.962,0,0,0,.038-.448.094.094,0,0,1,.012.028c.1.44,0,1.633-1.853,2.153Z" transform="translate(-82.054 -71.609)" fill="#bbcfef"/>
            </g>
            <g id="Grupo_1222783" data-name="Grupo 1222783" transform="translate(0.195)">
              <path id="Trazado_1295242" data-name="Trazado 1295242" d="M89.619,68.782a3.542,3.542,0,0,0-2.279.819,7.333,7.333,0,0,0-1.682,1.89,7.493,7.493,0,0,0-2.328-.391c-.672.013-.854-.308-.854-.308-.556-.8.267-1.766,1.024-2.371.224-.181.388-.289.388-.289a1.349,1.349,0,0,1,.46-.248c1.525-.462,3.4.063,5.27.9Z" transform="translate(-82.293 -67.712)" fill="#4f575f"/>
            </g>
            <g id="Grupo_1222785" data-name="Grupo 1222785" transform="translate(1.287 0.709)">
              <g id="Grupo_1222784" data-name="Grupo 1222784">
                <path id="Trazado_1295243" data-name="Trazado 1295243" d="M87.714,69.7c-.035.026-.07.051-.1.078a18.145,18.145,0,0,0-3.955-1.085l.115-.1A17.77,17.77,0,0,1,87.714,69.7Z" transform="translate(-83.654 -68.596)" fill="#cbdbf4"/>
              </g>
            </g>
          </g>
          <g id="Grupo_1222792" data-name="Grupo 1222792" transform="translate(2.102 0.246)">
            <g id="Grupo_1222791" data-name="Grupo 1222791">
              <g id="Grupo_1222788" data-name="Grupo 1222788" transform="translate(0.143)">
                <g id="Grupo_1222787" data-name="Grupo 1222787">
                  <path id="Trazado_1295244" data-name="Trazado 1295244" d="M86.632,69.022l-.331.3c-.16-.7-1.052-1.255-1.451-.888l.331-.3a.522.522,0,0,1,.477-.1,1.4,1.4,0,0,1,.974.986Z" transform="translate(-84.85 -68.019)" fill="#cbdbf4"/>
                </g>
              </g>
              <g id="Grupo_1222790" data-name="Grupo 1222790" transform="translate(0 0.305)">
                <g id="Grupo_1222789" data-name="Grupo 1222789">
                  <path id="Trazado_1295245" data-name="Trazado 1295245" d="M86.267,69.4l-1.572-.334c-.1-.452.164-.744.6-.652a1.4,1.4,0,0,1,.974.986Z" transform="translate(-84.672 -68.399)" fill="#bbcfef"/>
                </g>
              </g>
            </g>
          </g>
        </g>
      </g>
      <g id="Grupo_1222849" data-name="Grupo 1222849" transform="translate(7.143 13.567)">
        <g id="Grupo_1222797" data-name="Grupo 1222797" transform="translate(1.221 13.296)">
          <g id="Grupo_1222796" data-name="Grupo 1222796">
            <g id="Grupo_1222795" data-name="Grupo 1222795">
              <path id="Trazado_1295246" data-name="Trazado 1295246" d="M37.453,45.465a14.394,14.394,0,0,1-2.707,7.857c-4.525,6.543-11.19,6.608-11.21.179-.008-4.419,3.2-9.849,7.04-12.066,3.734-2.163,6.861-.381,6.877,4.03Z" transform="translate(-23.535 -40.516)" fill="#ebf2ff"/>
            </g>
          </g>
        </g>
        <g id="Grupo_1222807" data-name="Grupo 1222807" transform="translate(0 10.146)">
          <g id="Grupo_1222799" data-name="Grupo 1222799" transform="translate(0.797 5.043)">
            <g id="Grupo_1222798" data-name="Grupo 1222798">
              <path id="Trazado_1295247" data-name="Trazado 1295247" d="M23.773,42.983c.423-.244.766-.048.768.438a1.689,1.689,0,0,1-.763,1.326c-.426.246-.77.046-.772-.44A1.682,1.682,0,0,1,23.773,42.983Z" transform="translate(-23.007 -42.878)" fill="#fff"/>
            </g>
          </g>
          <g id="Grupo_1222804" data-name="Grupo 1222804">
            <g id="Grupo_1222801" data-name="Grupo 1222801">
              <g id="Grupo_1222800" data-name="Grupo 1222800">
                <path id="Trazado_1295248" data-name="Trazado 1295248" d="M29.5,36.637c.2-.116.369-.028.369.206l.013,4.536a.8.8,0,0,1-.367.631l-.463.267,0,1.416c0,.252-.275.563-.444.466L27.2,43.349l-4.808,2.776c-.2.116-.369.028-.369-.206l-.013-4.536a.8.8,0,0,1,.367-.631ZM25.95,42.13a1.69,1.69,0,0,0,.766-1.328c0-.486-.345-.682-.771-.436a1.681,1.681,0,0,0-.763,1.321c0,.486.345.686.768.442m2.373-1.37a1.69,1.69,0,0,0,.767-1.328c0-.486-.345-.682-.772-.436a1.681,1.681,0,0,0-.763,1.321c0,.486.345.686.768.442M23.581,43.5a1.689,1.689,0,0,0,.763-1.326c0-.486-.345-.682-.768-.438a1.682,1.682,0,0,0-.767,1.324c0,.486.345.686.772.44" transform="translate(-22.012 -36.587)" fill="#4f91ff"/>
              </g>
            </g>
            <g id="Grupo_1222803" data-name="Grupo 1222803" transform="translate(3.17 3.673)">
              <g id="Grupo_1222802" data-name="Grupo 1222802">
                <path id="Trazado_1295249" data-name="Trazado 1295249" d="M26.73,41.276c.426-.246.77-.05.772.436a1.69,1.69,0,0,1-.767,1.328c-.423.244-.767.044-.768-.442a1.681,1.681,0,0,1,.763-1.321Z" transform="translate(-25.967 -41.17)" fill="#fff"/>
              </g>
            </g>
          </g>
          <g id="Grupo_1222806" data-name="Grupo 1222806" transform="translate(5.543 2.304)">
            <g id="Grupo_1222805" data-name="Grupo 1222805">
              <path id="Trazado_1295250" data-name="Trazado 1295250" d="M29.691,39.567c.426-.246.77-.05.772.436A1.69,1.69,0,0,1,29.7,41.33c-.423.244-.766.044-.768-.442A1.681,1.681,0,0,1,29.691,39.567Z" transform="translate(-28.928 -39.461)" fill="#fff"/>
            </g>
          </g>
        </g>
        <g id="Grupo_1222809" data-name="Grupo 1222809" transform="translate(18.74 3.149)">
          <g id="Grupo_1222808" data-name="Grupo 1222808">
            <path id="Trazado_1295251" data-name="Trazado 1295251" d="M59.3,32.807a15.06,15.06,0,0,1-6.83,11.825c-3.828,2.205-7.065.639-7.079-3.8-.016-4.411,3.2-9.849,7.033-12.066,3.742-2.155,6.861-.373,6.877,4.038Z" transform="translate(-45.394 -27.856)" fill="#ebf2ff"/>
          </g>
        </g>
        <g id="Grupo_1222819" data-name="Grupo 1222819" transform="translate(17.513)">
          <g id="Grupo_1222811" data-name="Grupo 1222811" transform="translate(0.797 5.043)">
            <g id="Grupo_1222810" data-name="Grupo 1222810">
              <path id="Trazado_1295252" data-name="Trazado 1295252" d="M45.625,30.324c.423-.244.766-.048.768.438a1.689,1.689,0,0,1-.763,1.326c-.426.246-.77.046-.772-.44A1.682,1.682,0,0,1,45.625,30.324Z" transform="translate(-44.858 -30.219)" fill="#fff"/>
            </g>
          </g>
          <g id="Grupo_1222816" data-name="Grupo 1222816">
            <g id="Grupo_1222813" data-name="Grupo 1222813">
              <g id="Grupo_1222812" data-name="Grupo 1222812">
                <path id="Trazado_1295253" data-name="Trazado 1295253" d="M51.356,23.978c.2-.116.369-.028.369.206l.013,4.536a.8.8,0,0,1-.367.631l-.463.267,0,1.416c0,.252-.275.563-.444.466l-1.415-.811-4.808,2.776c-.2.116-.369.028-.369-.206l-.013-4.536a.8.8,0,0,1,.367-.631ZM47.8,29.47a1.69,1.69,0,0,0,.766-1.328c0-.486-.345-.682-.771-.436a1.681,1.681,0,0,0-.763,1.321c0,.486.345.686.768.442m2.373-1.37a1.69,1.69,0,0,0,.767-1.328c0-.486-.345-.682-.772-.436a1.681,1.681,0,0,0-.763,1.321c0,.486.345.686.768.442m-4.742,2.738a1.689,1.689,0,0,0,.763-1.326c0-.486-.345-.682-.768-.438A1.682,1.682,0,0,0,44.66,30.4c0,.486.345.686.772.44" transform="translate(-43.863 -23.927)" fill="#ffca6c"/>
              </g>
            </g>
            <g id="Grupo_1222815" data-name="Grupo 1222815" transform="translate(3.17 3.673)">
              <g id="Grupo_1222814" data-name="Grupo 1222814">
                <path id="Trazado_1295254" data-name="Trazado 1295254" d="M48.581,28.617c.426-.246.77-.05.772.436a1.69,1.69,0,0,1-.767,1.328c-.423.244-.767.044-.768-.442a1.681,1.681,0,0,1,.763-1.321Z" transform="translate(-47.818 -28.51)" fill="#fff"/>
              </g>
            </g>
          </g>
          <g id="Grupo_1222818" data-name="Grupo 1222818" transform="translate(5.543 2.304)">
            <g id="Grupo_1222817" data-name="Grupo 1222817">
              <path id="Trazado_1295255" data-name="Trazado 1295255" d="M51.542,26.908c.426-.246.77-.05.772.436a1.69,1.69,0,0,1-.767,1.328c-.423.244-.766.044-.768-.442a1.681,1.681,0,0,1,.763-1.321Z" transform="translate(-50.779 -26.801)" fill="#fff"/>
            </g>
          </g>
        </g>
        <g id="Grupo_1222832" data-name="Grupo 1222832" transform="translate(3.788 17.726)">
          <g id="Grupo_1222831" data-name="Grupo 1222831">
            <g id="Grupo_1222821" data-name="Grupo 1222821" transform="translate(1.674)">
              <g id="Grupo_1222820" data-name="Grupo 1222820">
                <path id="Trazado_1295256" data-name="Trazado 1295256" d="M31.744,46.37c1.3-.751,2.362-.165,2.366,1.319l-.008.143v.02a7.225,7.225,0,0,1-.365,1.945c-.02.116-.071.315-.12.208a1.566,1.566,0,0,1-.157-.514.875.875,0,0,0-.433-.721c-.767-.34-1.616.347-1.8.425a1.692,1.692,0,0,1-1.3.246c0,.008-.077.154-.189.386a4.827,4.827,0,0,0-.632,2.257,1.621,1.621,0,0,0,.027.321c-.06-.169-.155-.561-.2-.746a4.917,4.917,0,0,1,.114-2.444.678.678,0,0,1,.283-.375c.1-.06.206-.059.26.033a5.226,5.226,0,0,1,2.157-2.5Z" transform="translate(-28.827 -46.044)" fill="#70444d"/>
              </g>
            </g>
            <g id="Grupo_1222830" data-name="Grupo 1222830" transform="translate(0 2.635)">
              <g id="Grupo_1222823" data-name="Grupo 1222823" transform="translate(2.701 5.41)">
                <g id="Grupo_1222822" data-name="Grupo 1222822">
                  <path id="Trazado_1295257" data-name="Trazado 1295257" d="M32.709,56.083c.421-.026.6.356.564.789l-.084.792c-.016.148-.148.318-.266.3l-1.233-.1c-.935,1.155-1.417,1.928-1.5,1.528l-.08-.7a2.04,2.04,0,0,1,.557-1.436c.025.644.456.93.992.621l.06-.035a2.3,2.3,0,0,0,.985-1.763Z" transform="translate(-30.108 -56.081)" fill="#f04343"/>
                </g>
              </g>
              <g id="Grupo_1222825" data-name="Grupo 1222825" transform="translate(3.26 4.422)">
                <g id="Grupo_1222824" data-name="Grupo 1222824">
                  <path id="Trazado_1295258" data-name="Trazado 1295258" d="M32.846,54.848c0,1.029,0,.939,0,.99a2.3,2.3,0,0,1-.985,1.763l-.06.035c-.556.321-.992,0-.994-.675l0-.89a2.606,2.606,0,0,0,2.04-1.222Z" transform="translate(-30.806 -54.848)" fill="#f3b2a1"/>
                </g>
              </g>
              <g id="Grupo_1222827" data-name="Grupo 1222827" transform="translate(0 4.413)">
                <g id="Grupo_1222826" data-name="Grupo 1222826">
                  <path id="Trazado_1295259" data-name="Trazado 1295259" d="M35.381,56.165a13.4,13.4,0,0,1-4.123,3.975,5.514,5.514,0,0,1-4.52.778L27,59.852a2.116,2.116,0,0,1,.91-1.291l1.719-1a1.808,1.808,0,0,0-.187.887l.078.692c.034.148.175.123.28-.008l1.214-1.517,1.237.1c.143,0,.255-.167.264-.3l.086-.794a.808.808,0,0,0-.187-.661l1.719-1c.412-.233.778-.148.91.233Z" transform="translate(-26.738 -54.837)" fill="#ff6161"/>
                </g>
              </g>
              <g id="Grupo_1222829" data-name="Grupo 1222829" transform="translate(1.547)">
                <g id="Grupo_1222828" data-name="Grupo 1222828">
                  <path id="Trazado_1295260" data-name="Trazado 1295260" d="M29.893,50.095c.733.223,1.5-.385,1.689-.47a1.576,1.576,0,0,1,1.413-.2.875.875,0,0,1,.433.721,1.566,1.566,0,0,0,.157.514c.049.107.1-.092.12-.208,0-.013.087-.264.176-.631.349.23.124,1.245-.337,1.546a5.594,5.594,0,0,1-2.172,3.355,1.392,1.392,0,0,1-2.184-.84c-.267.144-.492-.053-.519-.444a1.325,1.325,0,0,1,.289-.884c.052.207.1.4.141.507a1.622,1.622,0,0,1-.027-.321,4.827,4.827,0,0,1,.632-2.257c.111-.233.185-.379.189-.386Z" transform="translate(-28.668 -49.331)" fill="#fdc8b8"/>
                </g>
              </g>
            </g>
          </g>
        </g>
        <g id="Grupo_1222848" data-name="Grupo 1222848" transform="translate(21.323 7.551)">
          <g id="Grupo_1222834" data-name="Grupo 1222834" transform="translate(5.912 6.462)">
            <g id="Grupo_1222833" data-name="Grupo 1222833">
              <path id="Trazado_1295261" data-name="Trazado 1295261" d="M55.993,42.762a6.178,6.178,0,0,0,.807-1.35l0,1.285-.809.467Z" transform="translate(-55.993 -41.412)" fill="#70444d"/>
            </g>
          </g>
          <g id="Grupo_1222847" data-name="Grupo 1222847">
            <g id="Grupo_1222836" data-name="Grupo 1222836" transform="translate(2.866 8.15)">
              <g id="Grupo_1222835" data-name="Grupo 1222835">
                <path id="Trazado_1295262" data-name="Trazado 1295262" d="M55.128,43.518A2.788,2.788,0,0,1,53.7,46.237c-.99.572-1.708.064-1.452-1.054l.371-.214c.027.68.483.969,1.044.646l.06-.035a2.4,2.4,0,0,0,1.037-1.847Z" transform="translate(-52.192 -43.518)" fill="#a46ef2"/>
              </g>
            </g>
            <g id="Grupo_1222838" data-name="Grupo 1222838" transform="translate(3.285 7.269)">
              <g id="Grupo_1222837" data-name="Grupo 1222837">
                <path id="Trazado_1295263" data-name="Trazado 1295263" d="M54.859,42.419c0,.081,0,1.116,0,1.035a2.393,2.393,0,0,1-1.038,1.907l-.06.035c-.58.335-1.043.014-1.045-.7l0-1.033a2.765,2.765,0,0,0,2.144-1.24Z" transform="translate(-52.715 -42.419)" fill="#f3b2a1"/>
              </g>
            </g>
            <g id="Grupo_1222840" data-name="Grupo 1222840" transform="translate(2.583 3.03)">
              <g id="Grupo_1222839" data-name="Grupo 1222839">
                <path id="Trazado_1295264" data-name="Trazado 1295264" d="M53.509,37.417a2.437,2.437,0,0,1,.07.237.7.7,0,0,0,.9.492,4.443,4.443,0,0,0,1.007-.581l.007,2.454a5.054,5.054,0,0,1-1.882,2.314,1.446,1.446,0,0,1-1.75-.016c-.009-3.3-.1-3.656.186-4.273.36-.811,1.227-1.233,1.464-.627Z" transform="translate(-51.839 -37.13)" fill="#fdc8b8"/>
              </g>
            </g>
            <g id="Grupo_1222842" data-name="Grupo 1222842" transform="translate(2.603 8.217)">
              <g id="Grupo_1222841" data-name="Grupo 1222841">
                <path id="Trazado_1295265" data-name="Trazado 1295265" d="M51.864,43.6a1.221,1.221,0,0,0,.682.292v.4l-.68.393Z" transform="translate(-51.864 -43.602)" fill="#70444d"/>
              </g>
            </g>
            <g id="Grupo_1222844" data-name="Grupo 1222844" transform="translate(0 7.339)">
              <g id="Grupo_1222843" data-name="Grupo 1222843">
                <path id="Trazado_1295266" data-name="Trazado 1295266" d="M57.368,43.37a13.47,13.47,0,0,1-4.255,4.17,5.555,5.555,0,0,1-4.5.794,4.834,4.834,0,0,1,1.89-2.754l.124-.078.9-.521c-.246,1.169.492,1.611,1.455,1.058a2.826,2.826,0,0,0,1.431-2.723l.9-.521.132-.062c.887-.467,1.672-.194,1.914.638Z" transform="translate(-48.616 -42.505)" fill="#b785ff"/>
              </g>
            </g>
            <g id="Grupo_1222846" data-name="Grupo 1222846" transform="translate(1.413)">
              <g id="Grupo_1222845" data-name="Grupo 1222845">
                <path id="Trazado_1295267" data-name="Trazado 1295267" d="M53.323,33.673a1.767,1.767,0,0,1,2.762.962,6.465,6.465,0,0,1,.16,1.731c.011.955.005,1.929,0,2.9a1.293,1.293,0,0,1-.592,1.026l-.448.258-.011-3.739a4.448,4.448,0,0,1-1.007.581.7.7,0,0,1-.9-.492,2.438,2.438,0,0,0-.07-.237c-.222-.568-1.079-.241-1.464.627-.284.615-.2.811-.183,5.357l-.56.323c-.327.189-.595.036-.6-.34v-.089c-.038-2.995-.1-3.813.124-4.768a7.011,7.011,0,0,1,2.782-4.1Z" transform="translate(-50.38 -33.349)" fill="#804f59"/>
              </g>
            </g>
          </g>
        </g>
      </g>
    </g>
    <g id="Grupo_1222852" data-name="Grupo 1222852" transform="translate(35.253 49.326)">
      <g id="Grupo_1222851" data-name="Grupo 1222851">
        <path id="Trazado_1295268" data-name="Trazado 1295268" d="M42.057,59.99c.726-.419,1.316-.083,1.318.751a2.9,2.9,0,0,1-1.31,2.276c-.732.423-1.322.079-1.325-.755a2.889,2.889,0,0,1,1.316-2.273Z" transform="translate(-40.74 -59.81)" fill="#ff6161"/>
      </g>
    </g>
  </g>
</svg>
