<svg id="_11" data-name="11" xmlns="http://www.w3.org/2000/svg" xmlns:xlink="http://www.w3.org/1999/xlink" width="36.584" height="27.809" viewBox="0 0 36.584 27.809">
  <defs>
    <linearGradient id="linear-gradient" x1="0.07" y1="1.107" x2="0.811" y2="0.061" gradientUnits="objectBoundingBox">
      <stop offset="0" stop-color="#ff36ab"/>
      <stop offset="0.4" stop-color="#ff4eba"/>
      <stop offset="1" stop-color="#ff74d4"/>
    </linearGradient>
  </defs>
  <g id="Layer_4" transform="translate(0 0)">
    <g id="Grupo_1115840" data-name="Grupo 1115840">
      <path id="Trazado_905023" data-name="Trazado 905023" d="M142.007,296.676l-22.08,1.406c-1.8.114-3.656-1.508-4.154-3.624l-3.9-16.538a3.269,3.269,0,0,1,1.26-3.719l-3.858,2.191a3.272,3.272,0,0,0-1.26,3.719l3.9,16.538c.5,2.116,2.359,3.74,4.154,3.624l22.08-1.406a2.488,2.488,0,0,0,1.09-.319l3.858-2.191A2.506,2.506,0,0,1,142.007,296.676Z" transform="translate(-107.895 -272.47)" fill="#cc2987"/>
      <path id="Trazado_905024" data-name="Trazado 905024" d="M309.967,218.32l-3.9-16.538c-.5-2.116-2.359-3.738-4.156-3.624l-22.08,1.406c-1.8.114-2.848,1.922-2.35,4.038l3.9,16.538c.5,2.116,2.359,3.74,4.154,3.624l22.08-1.406c1.8-.114,2.848-1.922,2.35-4.038Z" transform="translate(-273.506 -198.152)" fill="url(#linear-gradient)"/>
      <path id="Trazado_905025" data-name="Trazado 905025" d="M343.623,218.32l-3.9-16.538c-.5-2.116-2.359-3.738-4.156-3.624l-22.08,1.406a2.462,2.462,0,0,0-1.69.8,2.464,2.464,0,0,1,1.531-.642l22.08-1.406c1.8-.114,3.658,1.508,4.156,3.624l3.9,16.538a3.546,3.546,0,0,1-.66,3.239,3.458,3.458,0,0,0,.817-3.4Z" transform="translate(-307.161 -198.152)" fill="#fface5"/>
      <path id="Trazado_905026" data-name="Trazado 905026" d="M307.939,310.493l-22.08,1.406c-1.8.114-3.656-1.508-4.154-3.624l-3.9-16.538a3.54,3.54,0,0,1,.66-3.237,3.458,3.458,0,0,0-.817,3.4l3.9,16.538c.5,2.116,2.359,3.74,4.154,3.624l22.08-1.406a2.458,2.458,0,0,0,1.69-.8,2.465,2.465,0,0,1-1.533.642Z" transform="translate(-273.668 -286.445)" fill="#bf2980"/>
      <path id="Trazado_905027" data-name="Trazado 905027" d="M790.3,581.5l-5.83,4.509a1.093,1.093,0,0,1-.541.219,1.3,1.3,0,0,1-1.39-1l-1.6-7.511a1.034,1.034,0,0,1,.152-.817l-.871,1.253a1.027,1.027,0,0,0-.152.817l1.6,7.512a1.3,1.3,0,0,0,1.39,1,1.079,1.079,0,0,0,.541-.218l5.83-4.509a.991.991,0,0,0,.214-.223l.871-1.253A.987.987,0,0,1,790.3,581.5Z" transform="translate(-764.746 -568.284)" fill="#bf2980"/>
      <path id="Trazado_905028" data-name="Trazado 905028" d="M828.209,560.916a1.284,1.284,0,0,0-.783-.912L820,557a1.249,1.249,0,0,0-.605-.089,1.026,1.026,0,0,0-.91,1.258l1.6,7.512a1.3,1.3,0,0,0,1.39,1,1.078,1.078,0,0,0,.541-.218l5.831-4.509a1.014,1.014,0,0,0,.366-1.04Z" transform="translate(-802.292 -548.742)" fill="#f7e9f0"/>
    </g>
  </g>
</svg>
